solid 
   facet normal 9.396926e-01 -0.000000e+00 3.420201e-01
      outer loop
         vertex 3.772060e+01 -1.772059e+01 2.000000e+01
         vertex 4.500000e+01 -2.500000e+01 0.000000e+00
         vertex 4.500000e+01 2.500000e+01 0.000000e+00
      endloop
   endfacet
   facet normal 9.396926e-01 -0.000000e+00 3.420201e-01
      outer loop
         vertex 3.772060e+01 1.772059e+01 2.000000e+01
         vertex 3.772060e+01 -1.772059e+01 2.000000e+01
         vertex 4.500000e+01 2.500000e+01 0.000000e+00
      endloop
   endfacet
   facet normal -0.000000e+00 9.396926e-01 3.420202e-01
      outer loop
         vertex 4.500000e+01 2.500000e+01 0.000000e+00
         vertex -4.500000e+01 2.500000e+01 0.000000e+00
         vertex -3.772060e+01 1.772059e+01 2.000000e+01
      endloop
   endfacet
   facet normal 0.000000e+00 9.396926e-01 3.420202e-01
      outer loop
         vertex 3.772060e+01 1.772059e+01 2.000000e+01
         vertex 4.500000e+01 2.500000e+01 0.000000e+00
         vertex -3.772060e+01 1.772059e+01 2.000000e+01
      endloop
   endfacet
   facet normal -9.396926e-01 0.000000e+00 3.420201e-01
      outer loop
         vertex -4.500000e+01 2.500000e+01 0.000000e+00
         vertex -4.500000e+01 -2.500000e+01 0.000000e+00
         vertex -3.772060e+01 1.772059e+01 2.000000e+01
      endloop
   endfacet
   facet normal -9.396926e-01 0.000000e+00 3.420201e-01
      outer loop
         vertex -3.772060e+01 -1.772059e+01 2.000000e+01
         vertex -3.772060e+01 1.772059e+01 2.000000e+01
         vertex -4.500000e+01 -2.500000e+01 0.000000e+00
      endloop
   endfacet
   facet normal 0.000000e+00 -9.396926e-01 3.420202e-01
      outer loop
         vertex -4.500000e+01 -2.500000e+01 0.000000e+00
         vertex 4.500000e+01 -2.500000e+01 0.000000e+00
         vertex 3.772060e+01 -1.772059e+01 2.000000e+01
      endloop
   endfacet
   facet normal 0.000000e+00 -9.396926e-01 3.420202e-01
      outer loop
         vertex -3.772060e+01 -1.772059e+01 2.000000e+01
         vertex -4.500000e+01 -2.500000e+01 0.000000e+00
         vertex 3.772060e+01 -1.772059e+01 2.000000e+01
      endloop
   endfacet
   facet normal 0.000000e+00 0.000000e+00 1.000000e+00
      outer loop
         vertex -9.959743e+01 8.963931e+00 0.000000e+00
         vertex -1.000000e+02 1.224647e-14 0.000000e+00
         vertex -4.500000e+01 2.500000e+01 0.000000e+00
      endloop
   endfacet
   facet normal -0.000000e+00 -0.000000e+00 1.000000e+00
      outer loop
         vertex -9.959743e+01 -8.963931e+00 0.000000e+00
         vertex -9.839296e+01 -1.785569e+01 0.000000e+00
         vertex -4.500000e+01 -2.500000e+01 0.000000e+00
      endloop
   endfacet
   facet normal 0.000000e+00 -0.000000e+00 1.000000e+00
      outer loop
         vertex -9.639629e+01 -2.660369e+01 0.000000e+00
         vertex -9.362349e+01 -3.513748e+01 0.000000e+00
         vertex -4.500000e+01 -2.500000e+01 0.000000e+00
      endloop
   endfacet
   facet normal 0.000000e+00 -0.000000e+00 1.000000e+00
      outer loop
         vertex -9.009689e+01 -4.338837e+01 0.000000e+00
         vertex -8.584488e+01 -5.128993e+01 0.000000e+00
         vertex -4.500000e+01 -2.500000e+01 0.000000e+00
      endloop
   endfacet
   facet normal 0.000000e+00 -0.000000e+00 1.000000e+00
      outer loop
         vertex -8.090170e+01 -5.877853e+01 0.000000e+00
         vertex -7.530714e+01 -6.579387e+01 0.000000e+00
         vertex -4.500000e+01 -2.500000e+01 0.000000e+00
      endloop
   endfacet
   facet normal 0.000000e+00 -0.000000e+00 1.000000e+00
      outer loop
         vertex -6.910626e+01 -7.227949e+01 0.000000e+00
         vertex -6.234898e+01 -7.818315e+01 0.000000e+00
         vertex -4.500000e+01 -2.500000e+01 0.000000e+00
      endloop
   endfacet
   facet normal 0.000000e+00 -0.000000e+00 1.000000e+00
      outer loop
         vertex -5.508970e+01 -8.345733e+01 0.000000e+00
         vertex -4.738687e+01 -8.805956e+01 0.000000e+00
         vertex -4.500000e+01 -2.500000e+01 0.000000e+00
      endloop
   endfacet
   facet normal 0.000000e+00 0.000000e+00 1.000000e+00
      outer loop
         vertex -3.930250e+01 -9.195277e+01 0.000000e+00
         vertex -3.090170e+01 -9.510565e+01 0.000000e+00
         vertex -4.500000e+01 -2.500000e+01 0.000000e+00
      endloop
   endfacet
   facet normal 0.000000e+00 0.000000e+00 1.000000e+00
      outer loop
         vertex -2.225209e+01 -9.749279e+01 0.000000e+00
         vertex -1.342333e+01 -9.909498e+01 0.000000e+00
         vertex -4.500000e+01 -2.500000e+01 0.000000e+00
      endloop
   endfacet
   facet normal 0.000000e+00 0.000000e+00 1.000000e+00
      outer loop
         vertex -4.486483e+00 -9.989931e+01 0.000000e+00
         vertex 4.486483e+00 -9.989931e+01 0.000000e+00
         vertex -4.500000e+01 -2.500000e+01 0.000000e+00
      endloop
   endfacet
   facet normal 0.000000e+00 -0.000000e+00 1.000000e+00
      outer loop
         vertex 1.342333e+01 -9.909498e+01 0.000000e+00
         vertex 2.225209e+01 -9.749279e+01 0.000000e+00
         vertex 4.500000e+01 -2.500000e+01 0.000000e+00
      endloop
   endfacet
   facet normal 0.000000e+00 -0.000000e+00 1.000000e+00
      outer loop
         vertex 3.090170e+01 -9.510565e+01 0.000000e+00
         vertex 3.930250e+01 -9.195277e+01 0.000000e+00
         vertex 4.500000e+01 -2.500000e+01 0.000000e+00
      endloop
   endfacet
   facet normal 0.000000e+00 0.000000e+00 1.000000e+00
      outer loop
         vertex 4.738687e+01 -8.805956e+01 0.000000e+00
         vertex 5.508970e+01 -8.345733e+01 0.000000e+00
         vertex 4.500000e+01 -2.500000e+01 0.000000e+00
      endloop
   endfacet
   facet normal 0.000000e+00 0.000000e+00 1.000000e+00
      outer loop
         vertex 6.234898e+01 -7.818315e+01 0.000000e+00
         vertex 6.910626e+01 -7.227949e+01 0.000000e+00
         vertex 4.500000e+01 -2.500000e+01 0.000000e+00
      endloop
   endfacet
   facet normal 0.000000e+00 0.000000e+00 1.000000e+00
      outer loop
         vertex 7.530714e+01 -6.579387e+01 0.000000e+00
         vertex 8.090170e+01 -5.877853e+01 0.000000e+00
         vertex 4.500000e+01 -2.500000e+01 0.000000e+00
      endloop
   endfacet
   facet normal 0.000000e+00 0.000000e+00 1.000000e+00
      outer loop
         vertex 8.584488e+01 -5.128993e+01 0.000000e+00
         vertex 9.009689e+01 -4.338837e+01 0.000000e+00
         vertex 4.500000e+01 -2.500000e+01 0.000000e+00
      endloop
   endfacet
   facet normal 0.000000e+00 0.000000e+00 1.000000e+00
      outer loop
         vertex 9.362349e+01 -3.513748e+01 0.000000e+00
         vertex 9.639629e+01 -2.660369e+01 0.000000e+00
         vertex 4.500000e+01 -2.500000e+01 0.000000e+00
      endloop
   endfacet
   facet normal 0.000000e+00 0.000000e+00 1.000000e+00
      outer loop
         vertex 9.839296e+01 -1.785569e+01 0.000000e+00
         vertex 9.959743e+01 -8.963931e+00 0.000000e+00
         vertex 4.500000e+01 -2.500000e+01 0.000000e+00
      endloop
   endfacet
   facet normal 0.000000e+00 0.000000e+00 1.000000e+00
      outer loop
         vertex 1.000000e+02 -2.449294e-14 0.000000e+00
         vertex 9.959743e+01 8.963931e+00 0.000000e+00
         vertex 4.500000e+01 2.500000e+01 0.000000e+00
      endloop
   endfacet
   facet normal 0.000000e+00 0.000000e+00 1.000000e+00
      outer loop
         vertex 9.839296e+01 1.785569e+01 0.000000e+00
         vertex 9.639629e+01 2.660369e+01 0.000000e+00
         vertex 4.500000e+01 2.500000e+01 0.000000e+00
      endloop
   endfacet
   facet normal 0.000000e+00 0.000000e+00 1.000000e+00
      outer loop
         vertex 9.362349e+01 3.513748e+01 0.000000e+00
         vertex 9.009689e+01 4.338837e+01 0.000000e+00
         vertex 4.500000e+01 2.500000e+01 0.000000e+00
      endloop
   endfacet
   facet normal 0.000000e+00 0.000000e+00 1.000000e+00
      outer loop
         vertex 8.584488e+01 5.128993e+01 0.000000e+00
         vertex 8.090170e+01 5.877853e+01 0.000000e+00
         vertex 4.500000e+01 2.500000e+01 0.000000e+00
      endloop
   endfacet
   facet normal 0.000000e+00 0.000000e+00 1.000000e+00
      outer loop
         vertex 7.530714e+01 6.579387e+01 0.000000e+00
         vertex 6.910626e+01 7.227949e+01 0.000000e+00
         vertex 4.500000e+01 2.500000e+01 0.000000e+00
      endloop
   endfacet
   facet normal 0.000000e+00 0.000000e+00 1.000000e+00
      outer loop
         vertex 6.234898e+01 7.818315e+01 0.000000e+00
         vertex 5.508970e+01 8.345733e+01 0.000000e+00
         vertex 4.500000e+01 2.500000e+01 0.000000e+00
      endloop
   endfacet
   facet normal 0.000000e+00 0.000000e+00 1.000000e+00
      outer loop
         vertex 4.738687e+01 8.805956e+01 0.000000e+00
         vertex 3.930250e+01 9.195277e+01 0.000000e+00
         vertex 4.500000e+01 2.500000e+01 0.000000e+00
      endloop
   endfacet
   facet normal 0.000000e+00 0.000000e+00 1.000000e+00
      outer loop
         vertex 3.090170e+01 9.510565e+01 0.000000e+00
         vertex 2.225209e+01 9.749279e+01 0.000000e+00
         vertex 4.500000e+01 2.500000e+01 0.000000e+00
      endloop
   endfacet
   facet normal 0.000000e+00 0.000000e+00 1.000000e+00
      outer loop
         vertex 1.342333e+01 9.909498e+01 0.000000e+00
         vertex 4.486483e+00 9.989931e+01 0.000000e+00
         vertex 4.500000e+01 2.500000e+01 0.000000e+00
      endloop
   endfacet
   facet normal -0.000000e+00 0.000000e+00 1.000000e+00
      outer loop
         vertex -4.486483e+00 9.989931e+01 0.000000e+00
         vertex -1.342333e+01 9.909498e+01 0.000000e+00
         vertex -4.500000e+01 2.500000e+01 0.000000e+00
      endloop
   endfacet
   facet normal -0.000000e+00 0.000000e+00 1.000000e+00
      outer loop
         vertex -2.225209e+01 9.749279e+01 0.000000e+00
         vertex -3.090170e+01 9.510565e+01 0.000000e+00
         vertex -4.500000e+01 2.500000e+01 0.000000e+00
      endloop
   endfacet
   facet normal -0.000000e+00 0.000000e+00 1.000000e+00
      outer loop
         vertex -3.930250e+01 9.195277e+01 0.000000e+00
         vertex -4.738687e+01 8.805956e+01 0.000000e+00
         vertex -4.500000e+01 2.500000e+01 0.000000e+00
      endloop
   endfacet
   facet normal -0.000000e+00 0.000000e+00 1.000000e+00
      outer loop
         vertex -5.508970e+01 8.345733e+01 0.000000e+00
         vertex -6.234898e+01 7.818315e+01 0.000000e+00
         vertex -4.500000e+01 2.500000e+01 0.000000e+00
      endloop
   endfacet
   facet normal -0.000000e+00 0.000000e+00 1.000000e+00
      outer loop
         vertex -6.910626e+01 7.227949e+01 0.000000e+00
         vertex -7.530714e+01 6.579387e+01 0.000000e+00
         vertex -4.500000e+01 2.500000e+01 0.000000e+00
      endloop
   endfacet
   facet normal -0.000000e+00 0.000000e+00 1.000000e+00
      outer loop
         vertex -8.090170e+01 5.877853e+01 0.000000e+00
         vertex -8.584488e+01 5.128993e+01 0.000000e+00
         vertex -4.500000e+01 2.500000e+01 0.000000e+00
      endloop
   endfacet
   facet normal -0.000000e+00 0.000000e+00 1.000000e+00
      outer loop
         vertex -9.009689e+01 4.338837e+01 0.000000e+00
         vertex -9.362349e+01 3.513748e+01 0.000000e+00
         vertex -4.500000e+01 2.500000e+01 0.000000e+00
      endloop
   endfacet
   facet normal 0.000000e+00 0.000000e+00 1.000000e+00
      outer loop
         vertex -9.639629e+01 2.660369e+01 0.000000e+00
         vertex -9.839296e+01 1.785569e+01 0.000000e+00
         vertex -4.500000e+01 2.500000e+01 0.000000e+00
      endloop
   endfacet
   facet normal -0.000000e+00 0.000000e+00 1.000000e+00
      outer loop
         vertex 4.500000e+01 -2.500000e+01 0.000000e+00
         vertex -4.500000e+01 -2.500000e+01 0.000000e+00
         vertex 4.486483e+00 -9.989931e+01 0.000000e+00
      endloop
   endfacet
   facet normal 0.000000e+00 0.000000e+00 1.000000e+00
      outer loop
         vertex -4.500000e+01 2.500000e+01 0.000000e+00
         vertex 4.500000e+01 2.500000e+01 0.000000e+00
         vertex 4.486483e+00 9.989931e+01 0.000000e+00
      endloop
   endfacet
   facet normal 0.000000e+00 0.000000e+00 1.000000e+00
      outer loop
         vertex -9.959743e+01 8.963931e+00 0.000000e+00
         vertex -4.500000e+01 2.500000e+01 0.000000e+00
         vertex -9.839296e+01 1.785569e+01 0.000000e+00
      endloop
   endfacet
   facet normal 0.000000e+00 0.000000e+00 1.000000e+00
      outer loop
         vertex -4.500000e+01 -2.500000e+01 0.000000e+00
         vertex -9.839296e+01 -1.785569e+01 0.000000e+00
         vertex -9.639629e+01 -2.660369e+01 0.000000e+00
      endloop
   endfacet
   facet normal -0.000000e+00 0.000000e+00 1.000000e+00
      outer loop
         vertex -4.500000e+01 -2.500000e+01 0.000000e+00
         vertex -8.584488e+01 -5.128993e+01 0.000000e+00
         vertex -8.090170e+01 -5.877853e+01 0.000000e+00
      endloop
   endfacet
   facet normal -0.000000e+00 0.000000e+00 1.000000e+00
      outer loop
         vertex -4.500000e+01 -2.500000e+01 0.000000e+00
         vertex -6.234898e+01 -7.818315e+01 0.000000e+00
         vertex -5.508970e+01 -8.345733e+01 0.000000e+00
      endloop
   endfacet
   facet normal -0.000000e+00 -0.000000e+00 1.000000e+00
      outer loop
         vertex -4.500000e+01 -2.500000e+01 0.000000e+00
         vertex -3.090170e+01 -9.510565e+01 0.000000e+00
         vertex -2.225209e+01 -9.749279e+01 0.000000e+00
      endloop
   endfacet
   facet normal 0.000000e+00 0.000000e+00 1.000000e+00
      outer loop
         vertex 1.342333e+01 -9.909498e+01 0.000000e+00
         vertex 4.500000e+01 -2.500000e+01 0.000000e+00
         vertex 4.486483e+00 -9.989931e+01 0.000000e+00
      endloop
   endfacet
   facet normal 0.000000e+00 0.000000e+00 1.000000e+00
      outer loop
         vertex 4.500000e+01 -2.500000e+01 0.000000e+00
         vertex 3.930250e+01 -9.195277e+01 0.000000e+00
         vertex 4.738687e+01 -8.805956e+01 0.000000e+00
      endloop
   endfacet
   facet normal 0.000000e+00 -0.000000e+00 1.000000e+00
      outer loop
         vertex 4.500000e+01 -2.500000e+01 0.000000e+00
         vertex 6.910626e+01 -7.227949e+01 0.000000e+00
         vertex 7.530714e+01 -6.579387e+01 0.000000e+00
      endloop
   endfacet
   facet normal 0.000000e+00 -0.000000e+00 1.000000e+00
      outer loop
         vertex 4.500000e+01 -2.500000e+01 0.000000e+00
         vertex 9.009689e+01 -4.338837e+01 0.000000e+00
         vertex 9.362349e+01 -3.513748e+01 0.000000e+00
      endloop
   endfacet
   facet normal 0.000000e+00 -0.000000e+00 1.000000e+00
      outer loop
         vertex 4.500000e+01 -2.500000e+01 0.000000e+00
         vertex 9.959743e+01 -8.963931e+00 0.000000e+00
         vertex 1.000000e+02 -2.449294e-14 0.000000e+00
      endloop
   endfacet
   facet normal 0.000000e+00 0.000000e+00 1.000000e+00
      outer loop
         vertex 9.839296e+01 1.785569e+01 0.000000e+00
         vertex 4.500000e+01 2.500000e+01 0.000000e+00
         vertex 9.959743e+01 8.963931e+00 0.000000e+00
      endloop
   endfacet
   facet normal 0.000000e+00 0.000000e+00 1.000000e+00
      outer loop
         vertex 8.584488e+01 5.128993e+01 0.000000e+00
         vertex 4.500000e+01 2.500000e+01 0.000000e+00
         vertex 9.009689e+01 4.338837e+01 0.000000e+00
      endloop
   endfacet
   facet normal 0.000000e+00 0.000000e+00 1.000000e+00
      outer loop
         vertex 6.234898e+01 7.818315e+01 0.000000e+00
         vertex 4.500000e+01 2.500000e+01 0.000000e+00
         vertex 6.910626e+01 7.227949e+01 0.000000e+00
      endloop
   endfacet
   facet normal 0.000000e+00 0.000000e+00 1.000000e+00
      outer loop
         vertex 3.090170e+01 9.510565e+01 0.000000e+00
         vertex 4.500000e+01 2.500000e+01 0.000000e+00
         vertex 3.930250e+01 9.195277e+01 0.000000e+00
      endloop
   endfacet
   facet normal 0.000000e+00 0.000000e+00 1.000000e+00
      outer loop
         vertex -4.500000e+01 2.500000e+01 0.000000e+00
         vertex -1.342333e+01 9.909498e+01 0.000000e+00
         vertex -2.225209e+01 9.749279e+01 0.000000e+00
      endloop
   endfacet
   facet normal 0.000000e+00 0.000000e+00 1.000000e+00
      outer loop
         vertex -4.500000e+01 2.500000e+01 0.000000e+00
         vertex -4.738687e+01 8.805956e+01 0.000000e+00
         vertex -5.508970e+01 8.345733e+01 0.000000e+00
      endloop
   endfacet
   facet normal 0.000000e+00 0.000000e+00 1.000000e+00
      outer loop
         vertex -4.500000e+01 2.500000e+01 0.000000e+00
         vertex -7.530714e+01 6.579387e+01 0.000000e+00
         vertex -8.090170e+01 5.877853e+01 0.000000e+00
      endloop
   endfacet
   facet normal 0.000000e+00 0.000000e+00 1.000000e+00
      outer loop
         vertex -4.500000e+01 2.500000e+01 0.000000e+00
         vertex -9.362349e+01 3.513748e+01 0.000000e+00
         vertex -9.639629e+01 2.660369e+01 0.000000e+00
      endloop
   endfacet
   facet normal -0.000000e+00 -0.000000e+00 1.000000e+00
      outer loop
         vertex -1.000000e+02 1.224647e-14 0.000000e+00
         vertex -9.959743e+01 -8.963931e+00 0.000000e+00
         vertex -4.500000e+01 -2.500000e+01 0.000000e+00
      endloop
   endfacet
   facet normal 0.000000e+00 -0.000000e+00 1.000000e+00
      outer loop
         vertex -7.530714e+01 -6.579387e+01 0.000000e+00
         vertex -6.910626e+01 -7.227949e+01 0.000000e+00
         vertex -4.500000e+01 -2.500000e+01 0.000000e+00
      endloop
   endfacet
   facet normal 0.000000e+00 0.000000e+00 1.000000e+00
      outer loop
         vertex -1.342333e+01 -9.909498e+01 0.000000e+00
         vertex -4.486483e+00 -9.989931e+01 0.000000e+00
         vertex -4.500000e+01 -2.500000e+01 0.000000e+00
      endloop
   endfacet
   facet normal 0.000000e+00 0.000000e+00 1.000000e+00
      outer loop
         vertex 5.508970e+01 -8.345733e+01 0.000000e+00
         vertex 6.234898e+01 -7.818315e+01 0.000000e+00
         vertex 4.500000e+01 -2.500000e+01 0.000000e+00
      endloop
   endfacet
   facet normal 0.000000e+00 0.000000e+00 1.000000e+00
      outer loop
         vertex 9.639629e+01 -2.660369e+01 0.000000e+00
         vertex 9.839296e+01 -1.785569e+01 0.000000e+00
         vertex 4.500000e+01 -2.500000e+01 0.000000e+00
      endloop
   endfacet
   facet normal 0.000000e+00 0.000000e+00 1.000000e+00
      outer loop
         vertex 8.090170e+01 5.877853e+01 0.000000e+00
         vertex 7.530714e+01 6.579387e+01 0.000000e+00
         vertex 4.500000e+01 2.500000e+01 0.000000e+00
      endloop
   endfacet
   facet normal 0.000000e+00 0.000000e+00 1.000000e+00
      outer loop
         vertex 2.225209e+01 9.749279e+01 0.000000e+00
         vertex 1.342333e+01 9.909498e+01 0.000000e+00
         vertex 4.500000e+01 2.500000e+01 0.000000e+00
      endloop
   endfacet
   facet normal -0.000000e+00 0.000000e+00 1.000000e+00
      outer loop
         vertex -3.090170e+01 9.510565e+01 0.000000e+00
         vertex -3.930250e+01 9.195277e+01 0.000000e+00
         vertex -4.500000e+01 2.500000e+01 0.000000e+00
      endloop
   endfacet
   facet normal -0.000000e+00 0.000000e+00 1.000000e+00
      outer loop
         vertex -8.584488e+01 5.128993e+01 0.000000e+00
         vertex -9.009689e+01 4.338837e+01 0.000000e+00
         vertex -4.500000e+01 2.500000e+01 0.000000e+00
      endloop
   endfacet
   facet normal 0.000000e+00 0.000000e+00 1.000000e+00
      outer loop
         vertex 4.500000e+01 2.500000e+01 0.000000e+00
         vertex 4.500000e+01 -2.500000e+01 0.000000e+00
         vertex 1.000000e+02 -2.449294e-14 0.000000e+00
      endloop
   endfacet
   facet normal -0.000000e+00 0.000000e+00 1.000000e+00
      outer loop
         vertex -4.500000e+01 -2.500000e+01 0.000000e+00
         vertex -9.362349e+01 -3.513748e+01 0.000000e+00
         vertex -9.009689e+01 -4.338837e+01 0.000000e+00
      endloop
   endfacet
   facet normal 0.000000e+00 0.000000e+00 1.000000e+00
      outer loop
         vertex 4.500000e+01 -2.500000e+01 0.000000e+00
         vertex 2.225209e+01 -9.749279e+01 0.000000e+00
         vertex 3.090170e+01 -9.510565e+01 0.000000e+00
      endloop
   endfacet
   facet normal 0.000000e+00 0.000000e+00 1.000000e+00
      outer loop
         vertex 4.500000e+01 2.500000e+01 0.000000e+00
         vertex 9.639629e+01 2.660369e+01 0.000000e+00
         vertex 9.362349e+01 3.513748e+01 0.000000e+00
      endloop
   endfacet
   facet normal 0.000000e+00 0.000000e+00 1.000000e+00
      outer loop
         vertex -4.486483e+00 9.989931e+01 0.000000e+00
         vertex -4.500000e+01 2.500000e+01 0.000000e+00
         vertex 4.486483e+00 9.989931e+01 0.000000e+00
      endloop
   endfacet
   facet normal 0.000000e+00 -0.000000e+00 1.000000e+00
      outer loop
         vertex -1.000000e+02 1.224647e-14 0.000000e+00
         vertex -4.500000e+01 -2.500000e+01 0.000000e+00
         vertex -4.500000e+01 2.500000e+01 0.000000e+00
      endloop
   endfacet
   facet normal 0.000000e+00 0.000000e+00 1.000000e+00
      outer loop
         vertex -4.738687e+01 -8.805956e+01 0.000000e+00
         vertex -3.930250e+01 -9.195277e+01 0.000000e+00
         vertex -4.500000e+01 -2.500000e+01 0.000000e+00
      endloop
   endfacet
   facet normal 0.000000e+00 0.000000e+00 1.000000e+00
      outer loop
         vertex 5.508970e+01 8.345733e+01 0.000000e+00
         vertex 4.738687e+01 8.805956e+01 0.000000e+00
         vertex 4.500000e+01 2.500000e+01 0.000000e+00
      endloop
   endfacet
   facet normal 0.000000e+00 -0.000000e+00 1.000000e+00
      outer loop
         vertex 4.500000e+01 -2.500000e+01 0.000000e+00
         vertex 8.090170e+01 -5.877853e+01 0.000000e+00
         vertex 8.584488e+01 -5.128993e+01 0.000000e+00
      endloop
   endfacet
   facet normal -0.000000e+00 0.000000e+00 1.000000e+00
      outer loop
         vertex -6.234898e+01 7.818315e+01 0.000000e+00
         vertex -6.910626e+01 7.227949e+01 0.000000e+00
         vertex -4.500000e+01 2.500000e+01 0.000000e+00
      endloop
   endfacet
   facet normal 0.000000e+00 0.000000e+00 1.000000e+00
      outer loop
         vertex 3.772060e+01 -1.772059e+01 2.000000e+01
         vertex 3.772060e+01 1.772059e+01 2.000000e+01
         vertex -3.772060e+01 1.772059e+01 2.000000e+01
      endloop
   endfacet
   facet normal 0.000000e+00 0.000000e+00 1.000000e+00
      outer loop
         vertex -3.772060e+01 -1.772059e+01 2.000000e+01
         vertex 3.772060e+01 -1.772059e+01 2.000000e+01
         vertex -3.772060e+01 1.772059e+01 2.000000e+01
      endloop
   endfacet
   facet normal -9.989931e-01 -4.486506e-02 0.000000e+00
      outer loop
         vertex -1.000000e+02 1.224647e-14 0.000000e+00
         vertex -1.000000e+02 1.224647e-14 -2.000000e+00
         vertex -9.959743e+01 -8.963931e+00 -2.000000e+00
      endloop
   endfacet
   facet normal -9.749279e-01 -2.225210e-01 0.000000e+00
      outer loop
         vertex -9.839296e+01 -1.785569e+01 -2.000000e+00
         vertex -9.639629e+01 -2.660369e+01 -2.000000e+00
         vertex -9.639629e+01 -2.660369e+01 0.000000e+00
      endloop
   endfacet
   facet normal -9.195277e-01 -3.930253e-01 0.000000e+00
      outer loop
         vertex -9.362349e+01 -3.513748e+01 -2.000000e+00
         vertex -9.009689e+01 -4.338837e+01 -2.000000e+00
         vertex -9.009689e+01 -4.338837e+01 0.000000e+00
      endloop
   endfacet
   facet normal -8.345735e-01 -5.508967e-01 0.000000e+00
      outer loop
         vertex -8.584488e+01 -5.128993e+01 -2.000000e+00
         vertex -8.090170e+01 -5.877853e+01 -2.000000e+00
         vertex -8.090170e+01 -5.877853e+01 0.000000e+00
      endloop
   endfacet
   facet normal -7.227951e-01 -6.910624e-01 0.000000e+00
      outer loop
         vertex -7.530714e+01 -6.579387e+01 -2.000000e+00
         vertex -6.910626e+01 -7.227949e+01 -2.000000e+00
         vertex -6.910626e+01 -7.227949e+01 0.000000e+00
      endloop
   endfacet
   facet normal -5.877853e-01 -8.090169e-01 0.000000e+00
      outer loop
         vertex -6.234898e+01 -7.818315e+01 -2.000000e+00
         vertex -5.508970e+01 -8.345733e+01 -2.000000e+00
         vertex -5.508970e+01 -8.345733e+01 0.000000e+00
      endloop
   endfacet
   facet normal -4.338832e-01 -9.009691e-01 0.000000e+00
      outer loop
         vertex -4.738687e+01 -8.805956e+01 -2.000000e+00
         vertex -3.930250e+01 -9.195277e+01 -2.000000e+00
         vertex -3.930250e+01 -9.195277e+01 0.000000e+00
      endloop
   endfacet
   facet normal -2.660368e-01 -9.639629e-01 0.000000e+00
      outer loop
         vertex -3.090170e+01 -9.510565e+01 -2.000000e+00
         vertex -2.225209e+01 -9.749279e+01 -2.000000e+00
         vertex -2.225209e+01 -9.749279e+01 0.000000e+00
      endloop
   endfacet
   facet normal -8.963914e-02 -9.959743e-01 0.000000e+00
      outer loop
         vertex -1.342333e+01 -9.909498e+01 -2.000000e+00
         vertex -4.486483e+00 -9.989931e+01 -2.000000e+00
         vertex -4.486483e+00 -9.989931e+01 0.000000e+00
      endloop
   endfacet
   facet normal 8.963914e-02 -9.959743e-01 0.000000e+00
      outer loop
         vertex 4.486483e+00 -9.989931e+01 -2.000000e+00
         vertex 1.342333e+01 -9.909498e+01 -2.000000e+00
         vertex 1.342333e+01 -9.909498e+01 0.000000e+00
      endloop
   endfacet
   facet normal 2.660368e-01 -9.639629e-01 0.000000e+00
      outer loop
         vertex 2.225209e+01 -9.749279e+01 -2.000000e+00
         vertex 3.090170e+01 -9.510565e+01 -2.000000e+00
         vertex 3.090170e+01 -9.510565e+01 0.000000e+00
      endloop
   endfacet
   facet normal 4.338832e-01 -9.009691e-01 0.000000e+00
      outer loop
         vertex 3.930250e+01 -9.195277e+01 -2.000000e+00
         vertex 4.738687e+01 -8.805956e+01 -2.000000e+00
         vertex 4.738687e+01 -8.805956e+01 0.000000e+00
      endloop
   endfacet
   facet normal 5.877853e-01 -8.090169e-01 0.000000e+00
      outer loop
         vertex 5.508970e+01 -8.345733e+01 -2.000000e+00
         vertex 6.234898e+01 -7.818315e+01 -2.000000e+00
         vertex 6.234898e+01 -7.818315e+01 0.000000e+00
      endloop
   endfacet
   facet normal 7.227951e-01 -6.910624e-01 0.000000e+00
      outer loop
         vertex 6.910626e+01 -7.227949e+01 -2.000000e+00
         vertex 7.530714e+01 -6.579387e+01 -2.000000e+00
         vertex 7.530714e+01 -6.579387e+01 0.000000e+00
      endloop
   endfacet
   facet normal 8.345735e-01 -5.508967e-01 0.000000e+00
      outer loop
         vertex 8.090170e+01 -5.877853e+01 -2.000000e+00
         vertex 8.584488e+01 -5.128993e+01 -2.000000e+00
         vertex 8.584488e+01 -5.128993e+01 0.000000e+00
      endloop
   endfacet
   facet normal 9.195277e-01 -3.930253e-01 0.000000e+00
      outer loop
         vertex 9.009689e+01 -4.338837e+01 -2.000000e+00
         vertex 9.362349e+01 -3.513748e+01 -2.000000e+00
         vertex 9.362349e+01 -3.513748e+01 0.000000e+00
      endloop
   endfacet
   facet normal 9.749279e-01 -2.225210e-01 0.000000e+00
      outer loop
         vertex 9.639629e+01 -2.660369e+01 -2.000000e+00
         vertex 9.839296e+01 -1.785569e+01 -2.000000e+00
         vertex 9.839296e+01 -1.785569e+01 0.000000e+00
      endloop
   endfacet
   facet normal 9.989931e-01 -4.486506e-02 0.000000e+00
      outer loop
         vertex 9.959743e+01 -8.963931e+00 -2.000000e+00
         vertex 1.000000e+02 -2.449294e-14 -2.000000e+00
         vertex 1.000000e+02 -2.449294e-14 0.000000e+00
      endloop
   endfacet
   facet normal 9.909498e-01 1.342330e-01 -0.000000e+00
      outer loop
         vertex 9.959743e+01 8.963931e+00 -2.000000e+00
         vertex 9.839296e+01 1.785569e+01 -2.000000e+00
         vertex 9.839296e+01 1.785569e+01 0.000000e+00
      endloop
   endfacet
   facet normal 9.510566e-01 3.090168e-01 -0.000000e+00
      outer loop
         vertex 9.639629e+01 2.660369e+01 -2.000000e+00
         vertex 9.362349e+01 3.513748e+01 -2.000000e+00
         vertex 9.362349e+01 3.513748e+01 0.000000e+00
      endloop
   endfacet
   facet normal 8.805956e-01 4.738686e-01 -0.000000e+00
      outer loop
         vertex 9.009689e+01 4.338837e+01 -2.000000e+00
         vertex 8.584488e+01 5.128993e+01 -2.000000e+00
         vertex 8.584488e+01 5.128993e+01 0.000000e+00
      endloop
   endfacet
   facet normal 7.818310e-01 6.234905e-01 -0.000000e+00
      outer loop
         vertex 8.090170e+01 5.877853e+01 -2.000000e+00
         vertex 7.530714e+01 6.579387e+01 -2.000000e+00
         vertex 7.530714e+01 6.579387e+01 0.000000e+00
      endloop
   endfacet
   facet normal 6.579390e-01 7.530712e-01 -0.000000e+00
      outer loop
         vertex 6.910626e+01 7.227949e+01 -2.000000e+00
         vertex 6.234898e+01 7.818315e+01 -2.000000e+00
         vertex 6.234898e+01 7.818315e+01 0.000000e+00
      endloop
   endfacet
   facet normal 5.128992e-01 8.584489e-01 -0.000000e+00
      outer loop
         vertex 5.508970e+01 8.345733e+01 -2.000000e+00
         vertex 4.738687e+01 8.805956e+01 -2.000000e+00
         vertex 4.738687e+01 8.805956e+01 0.000000e+00
      endloop
   endfacet
   facet normal 3.513752e-01 9.362347e-01 -0.000000e+00
      outer loop
         vertex 3.930250e+01 9.195277e+01 -2.000000e+00
         vertex 3.090170e+01 9.510565e+01 -2.000000e+00
         vertex 3.090170e+01 9.510565e+01 0.000000e+00
      endloop
   endfacet
   facet normal 1.785572e-01 9.839295e-01 -0.000000e+00
      outer loop
         vertex 2.225209e+01 9.749279e+01 -2.000000e+00
         vertex 1.342333e+01 9.909498e+01 -2.000000e+00
         vertex 1.342333e+01 9.909498e+01 0.000000e+00
      endloop
   endfacet
   facet normal 0.000000e+00 1.000000e+00 0.000000e+00
      outer loop
         vertex 4.486483e+00 9.989931e+01 -2.000000e+00
         vertex -4.486483e+00 9.989931e+01 -2.000000e+00
         vertex -4.486483e+00 9.989931e+01 0.000000e+00
      endloop
   endfacet
   facet normal -1.785572e-01 9.839295e-01 0.000000e+00
      outer loop
         vertex -1.342333e+01 9.909498e+01 -2.000000e+00
         vertex -2.225209e+01 9.749279e+01 -2.000000e+00
         vertex -2.225209e+01 9.749279e+01 0.000000e+00
      endloop
   endfacet
   facet normal -3.513752e-01 9.362347e-01 0.000000e+00
      outer loop
         vertex -3.090170e+01 9.510565e+01 -2.000000e+00
         vertex -3.930250e+01 9.195277e+01 -2.000000e+00
         vertex -3.930250e+01 9.195277e+01 0.000000e+00
      endloop
   endfacet
   facet normal -5.128992e-01 8.584489e-01 0.000000e+00
      outer loop
         vertex -4.738687e+01 8.805956e+01 -2.000000e+00
         vertex -5.508970e+01 8.345733e+01 -2.000000e+00
         vertex -5.508970e+01 8.345733e+01 0.000000e+00
      endloop
   endfacet
   facet normal -6.579390e-01 7.530712e-01 0.000000e+00
      outer loop
         vertex -6.234898e+01 7.818315e+01 -2.000000e+00
         vertex -6.910626e+01 7.227949e+01 -2.000000e+00
         vertex -6.910626e+01 7.227949e+01 0.000000e+00
      endloop
   endfacet
   facet normal -7.818310e-01 6.234905e-01 0.000000e+00
      outer loop
         vertex -7.530714e+01 6.579387e+01 -2.000000e+00
         vertex -8.090170e+01 5.877853e+01 -2.000000e+00
         vertex -8.090170e+01 5.877853e+01 0.000000e+00
      endloop
   endfacet
   facet normal -8.805956e-01 4.738686e-01 0.000000e+00
      outer loop
         vertex -8.584488e+01 5.128993e+01 -2.000000e+00
         vertex -9.009689e+01 4.338837e+01 -2.000000e+00
         vertex -9.009689e+01 4.338837e+01 0.000000e+00
      endloop
   endfacet
   facet normal -9.510566e-01 3.090168e-01 0.000000e+00
      outer loop
         vertex -9.362349e+01 3.513748e+01 -2.000000e+00
         vertex -9.639629e+01 2.660369e+01 -2.000000e+00
         vertex -9.639629e+01 2.660369e+01 0.000000e+00
      endloop
   endfacet
   facet normal -9.909498e-01 1.342330e-01 0.000000e+00
      outer loop
         vertex -9.839296e+01 1.785569e+01 -2.000000e+00
         vertex -9.959743e+01 8.963931e+00 -2.000000e+00
         vertex -9.959743e+01 8.963931e+00 0.000000e+00
      endloop
   endfacet
   facet normal -9.989931e-01 4.486506e-02 0.000000e+00
      outer loop
         vertex -1.000000e+02 1.224647e-14 -2.000000e+00
         vertex -1.000000e+02 1.224647e-14 0.000000e+00
         vertex -9.959743e+01 8.963931e+00 -2.000000e+00
      endloop
   endfacet
   facet normal -9.749279e-01 2.225210e-01 0.000000e+00
      outer loop
         vertex -9.839296e+01 1.785569e+01 0.000000e+00
         vertex -9.639629e+01 2.660369e+01 0.000000e+00
         vertex -9.639629e+01 2.660369e+01 -2.000000e+00
      endloop
   endfacet
   facet normal -9.195277e-01 3.930253e-01 0.000000e+00
      outer loop
         vertex -9.362349e+01 3.513748e+01 0.000000e+00
         vertex -9.009689e+01 4.338837e+01 0.000000e+00
         vertex -9.009689e+01 4.338837e+01 -2.000000e+00
      endloop
   endfacet
   facet normal -8.345735e-01 5.508967e-01 0.000000e+00
      outer loop
         vertex -8.584488e+01 5.128993e+01 0.000000e+00
         vertex -8.090170e+01 5.877853e+01 0.000000e+00
         vertex -8.090170e+01 5.877853e+01 -2.000000e+00
      endloop
   endfacet
   facet normal -7.227951e-01 6.910624e-01 0.000000e+00
      outer loop
         vertex -7.530714e+01 6.579387e+01 0.000000e+00
         vertex -6.910626e+01 7.227949e+01 0.000000e+00
         vertex -6.910626e+01 7.227949e+01 -2.000000e+00
      endloop
   endfacet
   facet normal -5.877853e-01 8.090169e-01 0.000000e+00
      outer loop
         vertex -6.234898e+01 7.818315e+01 0.000000e+00
         vertex -5.508970e+01 8.345733e+01 0.000000e+00
         vertex -5.508970e+01 8.345733e+01 -2.000000e+00
      endloop
   endfacet
   facet normal -4.338832e-01 9.009691e-01 0.000000e+00
      outer loop
         vertex -4.738687e+01 8.805956e+01 0.000000e+00
         vertex -3.930250e+01 9.195277e+01 0.000000e+00
         vertex -3.930250e+01 9.195277e+01 -2.000000e+00
      endloop
   endfacet
   facet normal -2.660368e-01 9.639629e-01 0.000000e+00
      outer loop
         vertex -3.090170e+01 9.510565e+01 0.000000e+00
         vertex -2.225209e+01 9.749279e+01 0.000000e+00
         vertex -2.225209e+01 9.749279e+01 -2.000000e+00
      endloop
   endfacet
   facet normal -8.963914e-02 9.959743e-01 0.000000e+00
      outer loop
         vertex -1.342333e+01 9.909498e+01 0.000000e+00
         vertex -4.486483e+00 9.989931e+01 0.000000e+00
         vertex -4.486483e+00 9.989931e+01 -2.000000e+00
      endloop
   endfacet
   facet normal 8.963914e-02 9.959743e-01 0.000000e+00
      outer loop
         vertex 4.486483e+00 9.989931e+01 0.000000e+00
         vertex 1.342333e+01 9.909498e+01 0.000000e+00
         vertex 1.342333e+01 9.909498e+01 -2.000000e+00
      endloop
   endfacet
   facet normal 2.660368e-01 9.639629e-01 0.000000e+00
      outer loop
         vertex 2.225209e+01 9.749279e+01 0.000000e+00
         vertex 3.090170e+01 9.510565e+01 0.000000e+00
         vertex 3.090170e+01 9.510565e+01 -2.000000e+00
      endloop
   endfacet
   facet normal 4.338832e-01 9.009691e-01 0.000000e+00
      outer loop
         vertex 3.930250e+01 9.195277e+01 0.000000e+00
         vertex 4.738687e+01 8.805956e+01 0.000000e+00
         vertex 4.738687e+01 8.805956e+01 -2.000000e+00
      endloop
   endfacet
   facet normal 5.877853e-01 8.090169e-01 0.000000e+00
      outer loop
         vertex 5.508970e+01 8.345733e+01 0.000000e+00
         vertex 6.234898e+01 7.818315e+01 0.000000e+00
         vertex 6.234898e+01 7.818315e+01 -2.000000e+00
      endloop
   endfacet
   facet normal 7.227951e-01 6.910624e-01 0.000000e+00
      outer loop
         vertex 6.910626e+01 7.227949e+01 0.000000e+00
         vertex 7.530714e+01 6.579387e+01 0.000000e+00
         vertex 7.530714e+01 6.579387e+01 -2.000000e+00
      endloop
   endfacet
   facet normal 8.345735e-01 5.508967e-01 0.000000e+00
      outer loop
         vertex 8.090170e+01 5.877853e+01 0.000000e+00
         vertex 8.584488e+01 5.128993e+01 0.000000e+00
         vertex 8.584488e+01 5.128993e+01 -2.000000e+00
      endloop
   endfacet
   facet normal 9.195277e-01 3.930253e-01 0.000000e+00
      outer loop
         vertex 9.009689e+01 4.338837e+01 0.000000e+00
         vertex 9.362349e+01 3.513748e+01 0.000000e+00
         vertex 9.362349e+01 3.513748e+01 -2.000000e+00
      endloop
   endfacet
   facet normal 9.749279e-01 2.225210e-01 0.000000e+00
      outer loop
         vertex 9.639629e+01 2.660369e+01 0.000000e+00
         vertex 9.839296e+01 1.785569e+01 0.000000e+00
         vertex 9.839296e+01 1.785569e+01 -2.000000e+00
      endloop
   endfacet
   facet normal 9.989931e-01 4.486506e-02 0.000000e+00
      outer loop
         vertex 9.959743e+01 8.963931e+00 0.000000e+00
         vertex 1.000000e+02 -2.449294e-14 0.000000e+00
         vertex 1.000000e+02 -2.449294e-14 -2.000000e+00
      endloop
   endfacet
   facet normal 9.909498e-01 -1.342330e-01 0.000000e+00
      outer loop
         vertex 9.959743e+01 -8.963931e+00 0.000000e+00
         vertex 9.839296e+01 -1.785569e+01 0.000000e+00
         vertex 9.839296e+01 -1.785569e+01 -2.000000e+00
      endloop
   endfacet
   facet normal 9.510566e-01 -3.090168e-01 0.000000e+00
      outer loop
         vertex 9.639629e+01 -2.660369e+01 0.000000e+00
         vertex 9.362349e+01 -3.513748e+01 0.000000e+00
         vertex 9.362349e+01 -3.513748e+01 -2.000000e+00
      endloop
   endfacet
   facet normal 8.805956e-01 -4.738686e-01 0.000000e+00
      outer loop
         vertex 9.009689e+01 -4.338837e+01 0.000000e+00
         vertex 8.584488e+01 -5.128993e+01 0.000000e+00
         vertex 8.584488e+01 -5.128993e+01 -2.000000e+00
      endloop
   endfacet
   facet normal 7.818310e-01 -6.234905e-01 0.000000e+00
      outer loop
         vertex 8.090170e+01 -5.877853e+01 0.000000e+00
         vertex 7.530714e+01 -6.579387e+01 0.000000e+00
         vertex 7.530714e+01 -6.579387e+01 -2.000000e+00
      endloop
   endfacet
   facet normal 6.579390e-01 -7.530712e-01 0.000000e+00
      outer loop
         vertex 6.910626e+01 -7.227949e+01 0.000000e+00
         vertex 6.234898e+01 -7.818315e+01 0.000000e+00
         vertex 6.234898e+01 -7.818315e+01 -2.000000e+00
      endloop
   endfacet
   facet normal 5.128992e-01 -8.584489e-01 0.000000e+00
      outer loop
         vertex 5.508970e+01 -8.345733e+01 0.000000e+00
         vertex 4.738687e+01 -8.805956e+01 0.000000e+00
         vertex 4.738687e+01 -8.805956e+01 -2.000000e+00
      endloop
   endfacet
   facet normal 3.513752e-01 -9.362347e-01 0.000000e+00
      outer loop
         vertex 3.930250e+01 -9.195277e+01 0.000000e+00
         vertex 3.090170e+01 -9.510565e+01 0.000000e+00
         vertex 3.090170e+01 -9.510565e+01 -2.000000e+00
      endloop
   endfacet
   facet normal 1.785572e-01 -9.839295e-01 0.000000e+00
      outer loop
         vertex 2.225209e+01 -9.749279e+01 0.000000e+00
         vertex 1.342333e+01 -9.909498e+01 0.000000e+00
         vertex 1.342333e+01 -9.909498e+01 -2.000000e+00
      endloop
   endfacet
   facet normal 0.000000e+00 -1.000000e+00 0.000000e+00
      outer loop
         vertex 4.486483e+00 -9.989931e+01 0.000000e+00
         vertex -4.486483e+00 -9.989931e+01 0.000000e+00
         vertex -4.486483e+00 -9.989931e+01 -2.000000e+00
      endloop
   endfacet
   facet normal -1.785572e-01 -9.839295e-01 -0.000000e+00
      outer loop
         vertex -1.342333e+01 -9.909498e+01 0.000000e+00
         vertex -2.225209e+01 -9.749279e+01 0.000000e+00
         vertex -2.225209e+01 -9.749279e+01 -2.000000e+00
      endloop
   endfacet
   facet normal -3.513752e-01 -9.362347e-01 -0.000000e+00
      outer loop
         vertex -3.090170e+01 -9.510565e+01 0.000000e+00
         vertex -3.930250e+01 -9.195277e+01 0.000000e+00
         vertex -3.930250e+01 -9.195277e+01 -2.000000e+00
      endloop
   endfacet
   facet normal -5.128992e-01 -8.584489e-01 -0.000000e+00
      outer loop
         vertex -4.738687e+01 -8.805956e+01 0.000000e+00
         vertex -5.508970e+01 -8.345733e+01 0.000000e+00
         vertex -5.508970e+01 -8.345733e+01 -2.000000e+00
      endloop
   endfacet
   facet normal -6.579390e-01 -7.530712e-01 -0.000000e+00
      outer loop
         vertex -6.234898e+01 -7.818315e+01 0.000000e+00
         vertex -6.910626e+01 -7.227949e+01 0.000000e+00
         vertex -6.910626e+01 -7.227949e+01 -2.000000e+00
      endloop
   endfacet
   facet normal -7.818310e-01 -6.234905e-01 -0.000000e+00
      outer loop
         vertex -7.530714e+01 -6.579387e+01 0.000000e+00
         vertex -8.090170e+01 -5.877853e+01 0.000000e+00
         vertex -8.090170e+01 -5.877853e+01 -2.000000e+00
      endloop
   endfacet
   facet normal -8.805956e-01 -4.738686e-01 -0.000000e+00
      outer loop
         vertex -8.584488e+01 -5.128993e+01 0.000000e+00
         vertex -9.009689e+01 -4.338837e+01 0.000000e+00
         vertex -9.009689e+01 -4.338837e+01 -2.000000e+00
      endloop
   endfacet
   facet normal -9.510566e-01 -3.090168e-01 -0.000000e+00
      outer loop
         vertex -9.362349e+01 -3.513748e+01 0.000000e+00
         vertex -9.639629e+01 -2.660369e+01 0.000000e+00
         vertex -9.639629e+01 -2.660369e+01 -2.000000e+00
      endloop
   endfacet
   facet normal -9.909498e-01 -1.342330e-01 -0.000000e+00
      outer loop
         vertex -9.839296e+01 -1.785569e+01 0.000000e+00
         vertex -9.959743e+01 -8.963931e+00 0.000000e+00
         vertex -9.959743e+01 -8.963931e+00 -2.000000e+00
      endloop
   endfacet
   facet normal -9.989931e-01 -4.486506e-02 0.000000e+00
      outer loop
         vertex -1.000000e+02 1.224647e-14 0.000000e+00
         vertex -9.959743e+01 -8.963931e+00 -2.000000e+00
         vertex -9.959743e+01 -8.963931e+00 0.000000e+00
      endloop
   endfacet
   facet normal -8.345735e-01 -5.508967e-01 0.000000e+00
      outer loop
         vertex -8.584488e+01 -5.128993e+01 -2.000000e+00
         vertex -8.090170e+01 -5.877853e+01 0.000000e+00
         vertex -8.584488e+01 -5.128993e+01 0.000000e+00
      endloop
   endfacet
   facet normal -4.338832e-01 -9.009691e-01 0.000000e+00
      outer loop
         vertex -4.738687e+01 -8.805956e+01 -2.000000e+00
         vertex -3.930250e+01 -9.195277e+01 0.000000e+00
         vertex -4.738687e+01 -8.805956e+01 0.000000e+00
      endloop
   endfacet
   facet normal 8.963914e-02 -9.959743e-01 0.000000e+00
      outer loop
         vertex 4.486483e+00 -9.989931e+01 -2.000000e+00
         vertex 1.342333e+01 -9.909498e+01 0.000000e+00
         vertex 4.486483e+00 -9.989931e+01 0.000000e+00
      endloop
   endfacet
   facet normal 5.877853e-01 -8.090169e-01 0.000000e+00
      outer loop
         vertex 5.508970e+01 -8.345733e+01 -2.000000e+00
         vertex 6.234898e+01 -7.818315e+01 0.000000e+00
         vertex 5.508970e+01 -8.345733e+01 0.000000e+00
      endloop
   endfacet
   facet normal 9.195277e-01 -3.930253e-01 0.000000e+00
      outer loop
         vertex 9.009689e+01 -4.338837e+01 -2.000000e+00
         vertex 9.362349e+01 -3.513748e+01 0.000000e+00
         vertex 9.009689e+01 -4.338837e+01 0.000000e+00
      endloop
   endfacet
   facet normal 9.909498e-01 1.342330e-01 0.000000e+00
      outer loop
         vertex 9.959743e+01 8.963931e+00 -2.000000e+00
         vertex 9.839296e+01 1.785569e+01 0.000000e+00
         vertex 9.959743e+01 8.963931e+00 0.000000e+00
      endloop
   endfacet
   facet normal 7.818310e-01 6.234905e-01 0.000000e+00
      outer loop
         vertex 8.090170e+01 5.877853e+01 -2.000000e+00
         vertex 7.530714e+01 6.579387e+01 0.000000e+00
         vertex 8.090170e+01 5.877853e+01 0.000000e+00
      endloop
   endfacet
   facet normal 3.513752e-01 9.362347e-01 0.000000e+00
      outer loop
         vertex 3.930250e+01 9.195277e+01 -2.000000e+00
         vertex 3.090170e+01 9.510565e+01 0.000000e+00
         vertex 3.930250e+01 9.195277e+01 0.000000e+00
      endloop
   endfacet
   facet normal -1.785572e-01 9.839295e-01 0.000000e+00
      outer loop
         vertex -1.342333e+01 9.909498e+01 -2.000000e+00
         vertex -2.225209e+01 9.749279e+01 0.000000e+00
         vertex -1.342333e+01 9.909498e+01 0.000000e+00
      endloop
   endfacet
   facet normal -6.579390e-01 7.530712e-01 0.000000e+00
      outer loop
         vertex -6.234898e+01 7.818315e+01 -2.000000e+00
         vertex -6.910626e+01 7.227949e+01 0.000000e+00
         vertex -6.234898e+01 7.818315e+01 0.000000e+00
      endloop
   endfacet
   facet normal -9.510566e-01 3.090168e-01 0.000000e+00
      outer loop
         vertex -9.362349e+01 3.513748e+01 -2.000000e+00
         vertex -9.639629e+01 2.660369e+01 0.000000e+00
         vertex -9.362349e+01 3.513748e+01 0.000000e+00
      endloop
   endfacet
   facet normal -9.989931e-01 4.486506e-02 0.000000e+00
      outer loop
         vertex -9.959743e+01 8.963931e+00 -2.000000e+00
         vertex -1.000000e+02 1.224647e-14 0.000000e+00
         vertex -9.959743e+01 8.963931e+00 0.000000e+00
      endloop
   endfacet
   facet normal -7.227951e-01 6.910624e-01 0.000000e+00
      outer loop
         vertex -7.530714e+01 6.579387e+01 0.000000e+00
         vertex -6.910626e+01 7.227949e+01 -2.000000e+00
         vertex -7.530714e+01 6.579387e+01 -2.000000e+00
      endloop
   endfacet
   facet normal -2.660368e-01 9.639629e-01 0.000000e+00
      outer loop
         vertex -3.090170e+01 9.510565e+01 0.000000e+00
         vertex -2.225209e+01 9.749279e+01 -2.000000e+00
         vertex -3.090170e+01 9.510565e+01 -2.000000e+00
      endloop
   endfacet
   facet normal 2.660368e-01 9.639629e-01 0.000000e+00
      outer loop
         vertex 2.225209e+01 9.749279e+01 0.000000e+00
         vertex 3.090170e+01 9.510565e+01 -2.000000e+00
         vertex 2.225209e+01 9.749279e+01 -2.000000e+00
      endloop
   endfacet
   facet normal 7.227951e-01 6.910624e-01 0.000000e+00
      outer loop
         vertex 6.910626e+01 7.227949e+01 0.000000e+00
         vertex 7.530714e+01 6.579387e+01 -2.000000e+00
         vertex 6.910626e+01 7.227949e+01 -2.000000e+00
      endloop
   endfacet
   facet normal 9.749279e-01 2.225210e-01 0.000000e+00
      outer loop
         vertex 9.639629e+01 2.660369e+01 0.000000e+00
         vertex 9.839296e+01 1.785569e+01 -2.000000e+00
         vertex 9.639629e+01 2.660369e+01 -2.000000e+00
      endloop
   endfacet
   facet normal 9.510566e-01 -3.090168e-01 0.000000e+00
      outer loop
         vertex 9.639629e+01 -2.660369e+01 0.000000e+00
         vertex 9.362349e+01 -3.513748e+01 -2.000000e+00
         vertex 9.639629e+01 -2.660369e+01 -2.000000e+00
      endloop
   endfacet
   facet normal 6.579390e-01 -7.530712e-01 0.000000e+00
      outer loop
         vertex 6.910626e+01 -7.227949e+01 0.000000e+00
         vertex 6.234898e+01 -7.818315e+01 -2.000000e+00
         vertex 6.910626e+01 -7.227949e+01 -2.000000e+00
      endloop
   endfacet
   facet normal 1.785572e-01 -9.839295e-01 0.000000e+00
      outer loop
         vertex 2.225209e+01 -9.749279e+01 0.000000e+00
         vertex 1.342333e+01 -9.909498e+01 -2.000000e+00
         vertex 2.225209e+01 -9.749279e+01 -2.000000e+00
      endloop
   endfacet
   facet normal -3.513752e-01 -9.362347e-01 0.000000e+00
      outer loop
         vertex -3.090170e+01 -9.510565e+01 0.000000e+00
         vertex -3.930250e+01 -9.195277e+01 -2.000000e+00
         vertex -3.090170e+01 -9.510565e+01 -2.000000e+00
      endloop
   endfacet
   facet normal -7.818310e-01 -6.234905e-01 0.000000e+00
      outer loop
         vertex -7.530714e+01 -6.579387e+01 0.000000e+00
         vertex -8.090170e+01 -5.877853e+01 -2.000000e+00
         vertex -7.530714e+01 -6.579387e+01 -2.000000e+00
      endloop
   endfacet
   facet normal -9.909498e-01 -1.342330e-01 0.000000e+00
      outer loop
         vertex -9.839296e+01 -1.785569e+01 0.000000e+00
         vertex -9.959743e+01 -8.963931e+00 -2.000000e+00
         vertex -9.839296e+01 -1.785569e+01 -2.000000e+00
      endloop
   endfacet
   facet normal 0.000000e+00 -1.000000e+00 -0.000000e+00
      outer loop
         vertex 4.486483e+00 -9.989931e+01 -2.000000e+00
         vertex 4.486483e+00 -9.989931e+01 0.000000e+00
         vertex -4.486483e+00 -9.989931e+01 -2.000000e+00
      endloop
   endfacet
   facet normal 8.345735e-01 5.508967e-01 0.000000e+00
      outer loop
         vertex 8.090170e+01 5.877853e+01 -2.000000e+00
         vertex 8.090170e+01 5.877853e+01 0.000000e+00
         vertex 8.584488e+01 5.128993e+01 -2.000000e+00
      endloop
   endfacet
   facet normal -9.195277e-01 3.930253e-01 0.000000e+00
      outer loop
         vertex -9.362349e+01 3.513748e+01 -2.000000e+00
         vertex -9.362349e+01 3.513748e+01 0.000000e+00
         vertex -9.009689e+01 4.338837e+01 -2.000000e+00
      endloop
   endfacet
   facet normal 6.579390e-01 7.530712e-01 -0.000000e+00
      outer loop
         vertex 6.910626e+01 7.227949e+01 0.000000e+00
         vertex 6.910626e+01 7.227949e+01 -2.000000e+00
         vertex 6.234898e+01 7.818315e+01 0.000000e+00
      endloop
   endfacet
   facet normal 2.660368e-01 -9.639629e-01 0.000000e+00
      outer loop
         vertex 2.225209e+01 -9.749279e+01 0.000000e+00
         vertex 2.225209e+01 -9.749279e+01 -2.000000e+00
         vertex 3.090170e+01 -9.510565e+01 0.000000e+00
      endloop
   endfacet
   facet normal -9.510566e-01 -3.090168e-01 0.000000e+00
      outer loop
         vertex -9.639629e+01 -2.660369e+01 -2.000000e+00
         vertex -9.362349e+01 -3.513748e+01 -2.000000e+00
         vertex -9.362349e+01 -3.513748e+01 0.000000e+00
      endloop
   endfacet
   facet normal -6.579390e-01 -7.530712e-01 0.000000e+00
      outer loop
         vertex -6.910626e+01 -7.227949e+01 -2.000000e+00
         vertex -6.234898e+01 -7.818315e+01 -2.000000e+00
         vertex -6.234898e+01 -7.818315e+01 0.000000e+00
      endloop
   endfacet
   facet normal -1.785572e-01 -9.839295e-01 0.000000e+00
      outer loop
         vertex -2.225209e+01 -9.749279e+01 -2.000000e+00
         vertex -1.342333e+01 -9.909498e+01 -2.000000e+00
         vertex -1.342333e+01 -9.909498e+01 0.000000e+00
      endloop
   endfacet
   facet normal 5.128992e-01 -8.584489e-01 0.000000e+00
      outer loop
         vertex 4.738687e+01 -8.805956e+01 -2.000000e+00
         vertex 5.508970e+01 -8.345733e+01 -2.000000e+00
         vertex 5.508970e+01 -8.345733e+01 0.000000e+00
      endloop
   endfacet
   facet normal 8.805956e-01 -4.738686e-01 0.000000e+00
      outer loop
         vertex 8.584488e+01 -5.128993e+01 -2.000000e+00
         vertex 9.009689e+01 -4.338837e+01 -2.000000e+00
         vertex 9.009689e+01 -4.338837e+01 0.000000e+00
      endloop
   endfacet
   facet normal 9.989931e-01 4.486506e-02 -0.000000e+00
      outer loop
         vertex 1.000000e+02 -2.449294e-14 -2.000000e+00
         vertex 9.959743e+01 8.963931e+00 -2.000000e+00
         vertex 9.959743e+01 8.963931e+00 0.000000e+00
      endloop
   endfacet
   facet normal 5.877853e-01 8.090169e-01 -0.000000e+00
      outer loop
         vertex 6.234898e+01 7.818315e+01 -2.000000e+00
         vertex 5.508970e+01 8.345733e+01 -2.000000e+00
         vertex 5.508970e+01 8.345733e+01 0.000000e+00
      endloop
   endfacet
   facet normal 8.963914e-02 9.959743e-01 -0.000000e+00
      outer loop
         vertex 1.342333e+01 9.909498e+01 -2.000000e+00
         vertex 4.486483e+00 9.989931e+01 -2.000000e+00
         vertex 4.486483e+00 9.989931e+01 0.000000e+00
      endloop
   endfacet
   facet normal -4.338832e-01 9.009691e-01 0.000000e+00
      outer loop
         vertex -3.930250e+01 9.195277e+01 -2.000000e+00
         vertex -4.738687e+01 8.805956e+01 -2.000000e+00
         vertex -4.738687e+01 8.805956e+01 0.000000e+00
      endloop
   endfacet
   facet normal -8.345735e-01 5.508967e-01 0.000000e+00
      outer loop
         vertex -8.090170e+01 5.877853e+01 -2.000000e+00
         vertex -8.584488e+01 5.128993e+01 -2.000000e+00
         vertex -8.584488e+01 5.128993e+01 0.000000e+00
      endloop
   endfacet
   facet normal -9.909498e-01 1.342330e-01 0.000000e+00
      outer loop
         vertex -9.959743e+01 8.963931e+00 0.000000e+00
         vertex -9.839296e+01 1.785569e+01 0.000000e+00
         vertex -9.839296e+01 1.785569e+01 -2.000000e+00
      endloop
   endfacet
   facet normal -7.818310e-01 6.234905e-01 0.000000e+00
      outer loop
         vertex -8.090170e+01 5.877853e+01 0.000000e+00
         vertex -7.530714e+01 6.579387e+01 0.000000e+00
         vertex -7.530714e+01 6.579387e+01 -2.000000e+00
      endloop
   endfacet
   facet normal -3.513752e-01 9.362347e-01 0.000000e+00
      outer loop
         vertex -3.930250e+01 9.195277e+01 0.000000e+00
         vertex -3.090170e+01 9.510565e+01 0.000000e+00
         vertex -3.090170e+01 9.510565e+01 -2.000000e+00
      endloop
   endfacet
   facet normal 1.785572e-01 9.839295e-01 0.000000e+00
      outer loop
         vertex 1.342333e+01 9.909498e+01 0.000000e+00
         vertex 2.225209e+01 9.749279e+01 0.000000e+00
         vertex 2.225209e+01 9.749279e+01 -2.000000e+00
      endloop
   endfacet
   facet normal 8.805956e-01 4.738686e-01 0.000000e+00
      outer loop
         vertex 8.584488e+01 5.128993e+01 0.000000e+00
         vertex 9.009689e+01 4.338837e+01 0.000000e+00
         vertex 9.009689e+01 4.338837e+01 -2.000000e+00
      endloop
   endfacet
   facet normal 9.989931e-01 -4.486506e-02 0.000000e+00
      outer loop
         vertex 1.000000e+02 -2.449294e-14 0.000000e+00
         vertex 9.959743e+01 -8.963931e+00 0.000000e+00
         vertex 9.959743e+01 -8.963931e+00 -2.000000e+00
      endloop
   endfacet
   facet normal 8.345735e-01 -5.508967e-01 0.000000e+00
      outer loop
         vertex 8.584488e+01 -5.128993e+01 0.000000e+00
         vertex 8.090170e+01 -5.877853e+01 0.000000e+00
         vertex 8.090170e+01 -5.877853e+01 -2.000000e+00
      endloop
   endfacet
   facet normal 4.338832e-01 -9.009691e-01 0.000000e+00
      outer loop
         vertex 4.738687e+01 -8.805956e+01 0.000000e+00
         vertex 3.930250e+01 -9.195277e+01 0.000000e+00
         vertex 3.930250e+01 -9.195277e+01 -2.000000e+00
      endloop
   endfacet
   facet normal -2.660368e-01 -9.639629e-01 -0.000000e+00
      outer loop
         vertex -2.225209e+01 -9.749279e+01 0.000000e+00
         vertex -3.090170e+01 -9.510565e+01 0.000000e+00
         vertex -3.090170e+01 -9.510565e+01 -2.000000e+00
      endloop
   endfacet
   facet normal -7.227951e-01 -6.910624e-01 -0.000000e+00
      outer loop
         vertex -6.910626e+01 -7.227949e+01 0.000000e+00
         vertex -7.530714e+01 -6.579387e+01 0.000000e+00
         vertex -7.530714e+01 -6.579387e+01 -2.000000e+00
      endloop
   endfacet
   facet normal -9.749279e-01 -2.225210e-01 -0.000000e+00
      outer loop
         vertex -9.639629e+01 -2.660369e+01 0.000000e+00
         vertex -9.839296e+01 -1.785569e+01 0.000000e+00
         vertex -9.839296e+01 -1.785569e+01 -2.000000e+00
      endloop
   endfacet
   facet normal -5.877853e-01 -8.090169e-01 0.000000e+00
      outer loop
         vertex -6.234898e+01 -7.818315e+01 -2.000000e+00
         vertex -5.508970e+01 -8.345733e+01 0.000000e+00
         vertex -6.234898e+01 -7.818315e+01 0.000000e+00
      endloop
   endfacet
   facet normal 9.749279e-01 -2.225210e-01 0.000000e+00
      outer loop
         vertex 9.639629e+01 -2.660369e+01 -2.000000e+00
         vertex 9.839296e+01 -1.785569e+01 0.000000e+00
         vertex 9.639629e+01 -2.660369e+01 0.000000e+00
      endloop
   endfacet
   facet normal -0.000000e+00 1.000000e+00 0.000000e+00
      outer loop
         vertex 4.486483e+00 9.989931e+01 -2.000000e+00
         vertex -4.486483e+00 9.989931e+01 0.000000e+00
         vertex 4.486483e+00 9.989931e+01 0.000000e+00
      endloop
   endfacet
   facet normal -9.749279e-01 2.225210e-01 0.000000e+00
      outer loop
         vertex -9.839296e+01 1.785569e+01 0.000000e+00
         vertex -9.639629e+01 2.660369e+01 -2.000000e+00
         vertex -9.839296e+01 1.785569e+01 -2.000000e+00
      endloop
   endfacet
   facet normal 4.338832e-01 9.009691e-01 0.000000e+00
      outer loop
         vertex 3.930250e+01 9.195277e+01 0.000000e+00
         vertex 4.738687e+01 8.805956e+01 -2.000000e+00
         vertex 3.930250e+01 9.195277e+01 -2.000000e+00
      endloop
   endfacet
   facet normal 7.818310e-01 -6.234905e-01 0.000000e+00
      outer loop
         vertex 8.090170e+01 -5.877853e+01 0.000000e+00
         vertex 7.530714e+01 -6.579387e+01 -2.000000e+00
         vertex 8.090170e+01 -5.877853e+01 -2.000000e+00
      endloop
   endfacet
   facet normal -8.805956e-01 -4.738686e-01 0.000000e+00
      outer loop
         vertex -8.584488e+01 -5.128993e+01 0.000000e+00
         vertex -9.009689e+01 -4.338837e+01 -2.000000e+00
         vertex -8.584488e+01 -5.128993e+01 -2.000000e+00
      endloop
   endfacet
   facet normal -5.877853e-01 8.090169e-01 0.000000e+00
      outer loop
         vertex -6.234898e+01 7.818315e+01 -2.000000e+00
         vertex -6.234898e+01 7.818315e+01 0.000000e+00
         vertex -5.508970e+01 8.345733e+01 -2.000000e+00
      endloop
   endfacet
   facet normal -8.963914e-02 -9.959743e-01 0.000000e+00
      outer loop
         vertex -1.342333e+01 -9.909498e+01 0.000000e+00
         vertex -1.342333e+01 -9.909498e+01 -2.000000e+00
         vertex -4.486483e+00 -9.989931e+01 0.000000e+00
      endloop
   endfacet
   facet normal 9.195277e-01 3.930253e-01 0.000000e+00
      outer loop
         vertex 9.009689e+01 4.338837e+01 -2.000000e+00
         vertex 9.009689e+01 4.338837e+01 0.000000e+00
         vertex 9.362349e+01 3.513748e+01 -2.000000e+00
      endloop
   endfacet
   facet normal -5.128992e-01 -8.584489e-01 0.000000e+00
      outer loop
         vertex -5.508970e+01 -8.345733e+01 -2.000000e+00
         vertex -4.738687e+01 -8.805956e+01 -2.000000e+00
         vertex -4.738687e+01 -8.805956e+01 0.000000e+00
      endloop
   endfacet
   facet normal 9.909498e-01 -1.342330e-01 0.000000e+00
      outer loop
         vertex 9.839296e+01 -1.785569e+01 -2.000000e+00
         vertex 9.959743e+01 -8.963931e+00 -2.000000e+00
         vertex 9.959743e+01 -8.963931e+00 0.000000e+00
      endloop
   endfacet
   facet normal -8.805956e-01 4.738686e-01 0.000000e+00
      outer loop
         vertex -9.009689e+01 4.338837e+01 0.000000e+00
         vertex -8.584488e+01 5.128993e+01 0.000000e+00
         vertex -8.584488e+01 5.128993e+01 -2.000000e+00
      endloop
   endfacet
   facet normal 5.128992e-01 8.584489e-01 0.000000e+00
      outer loop
         vertex 4.738687e+01 8.805956e+01 0.000000e+00
         vertex 5.508970e+01 8.345733e+01 0.000000e+00
         vertex 5.508970e+01 8.345733e+01 -2.000000e+00
      endloop
   endfacet
   facet normal 7.227951e-01 -6.910624e-01 0.000000e+00
      outer loop
         vertex 7.530714e+01 -6.579387e+01 0.000000e+00
         vertex 6.910626e+01 -7.227949e+01 0.000000e+00
         vertex 6.910626e+01 -7.227949e+01 -2.000000e+00
      endloop
   endfacet
   facet normal -9.195277e-01 -3.930253e-01 0.000000e+00
      outer loop
         vertex -9.362349e+01 -3.513748e+01 -2.000000e+00
         vertex -9.009689e+01 -4.338837e+01 0.000000e+00
         vertex -9.362349e+01 -3.513748e+01 0.000000e+00
      endloop
   endfacet
   facet normal -8.963914e-02 9.959743e-01 0.000000e+00
      outer loop
         vertex -1.342333e+01 9.909498e+01 0.000000e+00
         vertex -4.486483e+00 9.989931e+01 -2.000000e+00
         vertex -1.342333e+01 9.909498e+01 -2.000000e+00
      endloop
   endfacet
   facet normal -5.128992e-01 8.584489e-01 0.000000e+00
      outer loop
         vertex -4.738687e+01 8.805956e+01 0.000000e+00
         vertex -4.738687e+01 8.805956e+01 -2.000000e+00
         vertex -5.508970e+01 8.345733e+01 0.000000e+00
      endloop
   endfacet
   facet normal 3.513752e-01 -9.362347e-01 0.000000e+00
      outer loop
         vertex 3.090170e+01 -9.510565e+01 -2.000000e+00
         vertex 3.930250e+01 -9.195277e+01 -2.000000e+00
         vertex 3.930250e+01 -9.195277e+01 0.000000e+00
      endloop
   endfacet
   facet normal 9.510566e-01 3.090168e-01 0.000000e+00
      outer loop
         vertex 9.639629e+01 2.660369e+01 -2.000000e+00
         vertex 9.362349e+01 3.513748e+01 0.000000e+00
         vertex 9.639629e+01 2.660369e+01 0.000000e+00
      endloop
   endfacet
   facet normal 0.000000e+00 0.000000e+00 -1.000000e+00
      outer loop
         vertex -9.959743e+01 8.963931e+00 -2.000000e+00
         vertex -9.959743e+01 -8.963931e+00 -2.000000e+00
         vertex -1.000000e+02 1.224647e-14 -2.000000e+00
      endloop
   endfacet
   facet normal 0.000000e+00 0.000000e+00 -1.000000e+00
      outer loop
         vertex -9.959743e+01 -8.963931e+00 -2.000000e+00
         vertex -9.639629e+01 -2.660369e+01 -2.000000e+00
         vertex -9.839296e+01 -1.785569e+01 -2.000000e+00
      endloop
   endfacet
   facet normal 0.000000e+00 0.000000e+00 -1.000000e+00
      outer loop
         vertex -9.959743e+01 8.963931e+00 -2.000000e+00
         vertex -8.584488e+01 -5.128993e+01 -2.000000e+00
         vertex -9.009689e+01 -4.338837e+01 -2.000000e+00
      endloop
   endfacet
   facet normal 0.000000e+00 0.000000e+00 -1.000000e+00
      outer loop
         vertex -8.584488e+01 -5.128993e+01 -2.000000e+00
         vertex -7.530714e+01 -6.579387e+01 -2.000000e+00
         vertex -8.090170e+01 -5.877853e+01 -2.000000e+00
      endloop
   endfacet
   facet normal 0.000000e+00 0.000000e+00 -1.000000e+00
      outer loop
         vertex -6.910626e+01 -7.227949e+01 -2.000000e+00
         vertex -5.508970e+01 -8.345733e+01 -2.000000e+00
         vertex -6.234898e+01 -7.818315e+01 -2.000000e+00
      endloop
   endfacet
   facet normal 0.000000e+00 0.000000e+00 -1.000000e+00
      outer loop
         vertex -1.342333e+01 -9.909498e+01 -2.000000e+00
         vertex -3.090170e+01 -9.510565e+01 -2.000000e+00
         vertex -3.930250e+01 -9.195277e+01 -2.000000e+00
      endloop
   endfacet
   facet normal 0.000000e+00 0.000000e+00 -1.000000e+00
      outer loop
         vertex -3.090170e+01 -9.510565e+01 -2.000000e+00
         vertex -1.342333e+01 -9.909498e+01 -2.000000e+00
         vertex -2.225209e+01 -9.749279e+01 -2.000000e+00
      endloop
   endfacet
   facet normal -0.000000e+00 0.000000e+00 -1.000000e+00
      outer loop
         vertex 2.225209e+01 -9.749279e+01 -2.000000e+00
         vertex 1.342333e+01 -9.909498e+01 -2.000000e+00
         vertex 4.486483e+00 -9.989931e+01 -2.000000e+00
      endloop
   endfacet
   facet normal 0.000000e+00 0.000000e+00 -1.000000e+00
      outer loop
         vertex 2.225209e+01 -9.749279e+01 -2.000000e+00
         vertex 3.930250e+01 -9.195277e+01 -2.000000e+00
         vertex 3.090170e+01 -9.510565e+01 -2.000000e+00
      endloop
   endfacet
   facet normal -0.000000e+00 0.000000e+00 -1.000000e+00
      outer loop
         vertex 6.910626e+01 -7.227949e+01 -2.000000e+00
         vertex 6.234898e+01 -7.818315e+01 -2.000000e+00
         vertex 5.508970e+01 -8.345733e+01 -2.000000e+00
      endloop
   endfacet
   facet normal 0.000000e+00 0.000000e+00 -1.000000e+00
      outer loop
         vertex 6.910626e+01 -7.227949e+01 -2.000000e+00
         vertex 8.090170e+01 -5.877853e+01 -2.000000e+00
         vertex 7.530714e+01 -6.579387e+01 -2.000000e+00
      endloop
   endfacet
   facet normal -0.000000e+00 0.000000e+00 -1.000000e+00
      outer loop
         vertex 9.639629e+01 -2.660369e+01 -2.000000e+00
         vertex 9.362349e+01 -3.513748e+01 -2.000000e+00
         vertex 9.009689e+01 -4.338837e+01 -2.000000e+00
      endloop
   endfacet
   facet normal 0.000000e+00 0.000000e+00 -1.000000e+00
      outer loop
         vertex 9.639629e+01 -2.660369e+01 -2.000000e+00
         vertex 9.959743e+01 -8.963931e+00 -2.000000e+00
         vertex 9.839296e+01 -1.785569e+01 -2.000000e+00
      endloop
   endfacet
   facet normal -0.000000e+00 -0.000000e+00 -1.000000e+00
      outer loop
         vertex 9.639629e+01 2.660369e+01 -2.000000e+00
         vertex 9.839296e+01 1.785569e+01 -2.000000e+00
         vertex 9.959743e+01 8.963931e+00 -2.000000e+00
      endloop
   endfacet
   facet normal 0.000000e+00 0.000000e+00 -1.000000e+00
      outer loop
         vertex 9.639629e+01 2.660369e+01 -2.000000e+00
         vertex 9.009689e+01 4.338837e+01 -2.000000e+00
         vertex 9.362349e+01 3.513748e+01 -2.000000e+00
      endloop
   endfacet
   facet normal 0.000000e+00 0.000000e+00 -1.000000e+00
      outer loop
         vertex 9.009689e+01 4.338837e+01 -2.000000e+00
         vertex 7.530714e+01 6.579387e+01 -2.000000e+00
         vertex 8.090170e+01 5.877853e+01 -2.000000e+00
      endloop
   endfacet
   facet normal 0.000000e+00 0.000000e+00 -1.000000e+00
      outer loop
         vertex 7.530714e+01 6.579387e+01 -2.000000e+00
         vertex 6.234898e+01 7.818315e+01 -2.000000e+00
         vertex 6.910626e+01 7.227949e+01 -2.000000e+00
      endloop
   endfacet
   facet normal 0.000000e+00 0.000000e+00 -1.000000e+00
      outer loop
         vertex 5.508970e+01 8.345733e+01 -2.000000e+00
         vertex 3.930250e+01 9.195277e+01 -2.000000e+00
         vertex 4.738687e+01 8.805956e+01 -2.000000e+00
      endloop
   endfacet
   facet normal 0.000000e+00 0.000000e+00 -1.000000e+00
      outer loop
         vertex 3.090170e+01 9.510565e+01 -2.000000e+00
         vertex 1.342333e+01 9.909498e+01 -2.000000e+00
         vertex 2.225209e+01 9.749279e+01 -2.000000e+00
      endloop
   endfacet
   facet normal 0.000000e+00 -0.000000e+00 -1.000000e+00
      outer loop
         vertex -2.225209e+01 9.749279e+01 -2.000000e+00
         vertex -1.342333e+01 9.909498e+01 -2.000000e+00
         vertex -4.486483e+00 9.989931e+01 -2.000000e+00
      endloop
   endfacet
   facet normal 0.000000e+00 0.000000e+00 -1.000000e+00
      outer loop
         vertex -2.225209e+01 9.749279e+01 -2.000000e+00
         vertex -3.930250e+01 9.195277e+01 -2.000000e+00
         vertex -3.090170e+01 9.510565e+01 -2.000000e+00
      endloop
   endfacet
   facet normal 0.000000e+00 -0.000000e+00 -1.000000e+00
      outer loop
         vertex -6.910626e+01 7.227949e+01 -2.000000e+00
         vertex -6.234898e+01 7.818315e+01 -2.000000e+00
         vertex -5.508970e+01 8.345733e+01 -2.000000e+00
      endloop
   endfacet
   facet normal 0.000000e+00 0.000000e+00 -1.000000e+00
      outer loop
         vertex -6.910626e+01 7.227949e+01 -2.000000e+00
         vertex -8.090170e+01 5.877853e+01 -2.000000e+00
         vertex -7.530714e+01 6.579387e+01 -2.000000e+00
      endloop
   endfacet
   facet normal 0.000000e+00 0.000000e+00 -1.000000e+00
      outer loop
         vertex -8.584488e+01 5.128993e+01 -2.000000e+00
         vertex -9.362349e+01 3.513748e+01 -2.000000e+00
         vertex -9.009689e+01 4.338837e+01 -2.000000e+00
      endloop
   endfacet
   facet normal 0.000000e+00 0.000000e+00 -1.000000e+00
      outer loop
         vertex -9.639629e+01 2.660369e+01 -2.000000e+00
         vertex -9.959743e+01 8.963931e+00 -2.000000e+00
         vertex -9.839296e+01 1.785569e+01 -2.000000e+00
      endloop
   endfacet
   facet normal 0.000000e+00 0.000000e+00 -1.000000e+00
      outer loop
         vertex -9.639629e+01 -2.660369e+01 -2.000000e+00
         vertex -9.959743e+01 8.963931e+00 -2.000000e+00
         vertex -9.009689e+01 -4.338837e+01 -2.000000e+00
      endloop
   endfacet
   facet normal 0.000000e+00 0.000000e+00 -1.000000e+00
      outer loop
         vertex -6.910626e+01 -7.227949e+01 -2.000000e+00
         vertex -7.530714e+01 -6.579387e+01 -2.000000e+00
         vertex -8.584488e+01 -5.128993e+01 -2.000000e+00
      endloop
   endfacet
   facet normal 0.000000e+00 0.000000e+00 -1.000000e+00
      outer loop
         vertex -1.342333e+01 -9.909498e+01 -2.000000e+00
         vertex 2.225209e+01 -9.749279e+01 -2.000000e+00
         vertex 4.486483e+00 -9.989931e+01 -2.000000e+00
      endloop
   endfacet
   facet normal 0.000000e+00 0.000000e+00 -1.000000e+00
      outer loop
         vertex 3.930250e+01 -9.195277e+01 -2.000000e+00
         vertex 6.910626e+01 -7.227949e+01 -2.000000e+00
         vertex 5.508970e+01 -8.345733e+01 -2.000000e+00
      endloop
   endfacet
   facet normal 0.000000e+00 0.000000e+00 -1.000000e+00
      outer loop
         vertex 8.090170e+01 -5.877853e+01 -2.000000e+00
         vertex 9.639629e+01 -2.660369e+01 -2.000000e+00
         vertex 9.009689e+01 -4.338837e+01 -2.000000e+00
      endloop
   endfacet
   facet normal 0.000000e+00 -0.000000e+00 -1.000000e+00
      outer loop
         vertex 6.910626e+01 -7.227949e+01 -2.000000e+00
         vertex 9.639629e+01 2.660369e+01 -2.000000e+00
         vertex 9.959743e+01 8.963931e+00 -2.000000e+00
      endloop
   endfacet
   facet normal 0.000000e+00 0.000000e+00 -1.000000e+00
      outer loop
         vertex 8.584488e+01 5.128993e+01 -2.000000e+00
         vertex 9.009689e+01 4.338837e+01 -2.000000e+00
         vertex 8.090170e+01 5.877853e+01 -2.000000e+00
      endloop
   endfacet
   facet normal 0.000000e+00 0.000000e+00 -1.000000e+00
      outer loop
         vertex 3.930250e+01 9.195277e+01 -2.000000e+00
         vertex 1.342333e+01 9.909498e+01 -2.000000e+00
         vertex 3.090170e+01 9.510565e+01 -2.000000e+00
      endloop
   endfacet
   facet normal 0.000000e+00 -0.000000e+00 -1.000000e+00
      outer loop
         vertex -8.584488e+01 5.128993e+01 -2.000000e+00
         vertex -6.910626e+01 7.227949e+01 -2.000000e+00
         vertex -5.508970e+01 8.345733e+01 -2.000000e+00
      endloop
   endfacet
   facet normal 0.000000e+00 -0.000000e+00 -1.000000e+00
      outer loop
         vertex -9.959743e+01 8.963931e+00 -2.000000e+00
         vertex -9.362349e+01 3.513748e+01 -2.000000e+00
         vertex -8.584488e+01 5.128993e+01 -2.000000e+00
      endloop
   endfacet
   facet normal 0.000000e+00 0.000000e+00 -1.000000e+00
      outer loop
         vertex -9.362349e+01 -3.513748e+01 -2.000000e+00
         vertex -9.639629e+01 -2.660369e+01 -2.000000e+00
         vertex -9.009689e+01 -4.338837e+01 -2.000000e+00
      endloop
   endfacet
   facet normal -0.000000e+00 0.000000e+00 -1.000000e+00
      outer loop
         vertex 3.930250e+01 -9.195277e+01 -2.000000e+00
         vertex 2.225209e+01 -9.749279e+01 -2.000000e+00
         vertex -1.342333e+01 -9.909498e+01 -2.000000e+00
      endloop
   endfacet
   facet normal 0.000000e+00 0.000000e+00 -1.000000e+00
      outer loop
         vertex 8.584488e+01 -5.128993e+01 -2.000000e+00
         vertex 8.090170e+01 -5.877853e+01 -2.000000e+00
         vertex 9.009689e+01 -4.338837e+01 -2.000000e+00
      endloop
   endfacet
   facet normal 0.000000e+00 0.000000e+00 -1.000000e+00
      outer loop
         vertex 7.530714e+01 6.579387e+01 -2.000000e+00
         vertex 1.342333e+01 9.909498e+01 -2.000000e+00
         vertex 3.930250e+01 9.195277e+01 -2.000000e+00
      endloop
   endfacet
   facet normal 0.000000e+00 0.000000e+00 -1.000000e+00
      outer loop
         vertex -8.090170e+01 5.877853e+01 -2.000000e+00
         vertex -6.910626e+01 7.227949e+01 -2.000000e+00
         vertex -8.584488e+01 5.128993e+01 -2.000000e+00
      endloop
   endfacet
   facet normal 0.000000e+00 0.000000e+00 -1.000000e+00
      outer loop
         vertex 5.508970e+01 8.345733e+01 -2.000000e+00
         vertex 7.530714e+01 6.579387e+01 -2.000000e+00
         vertex 3.930250e+01 9.195277e+01 -2.000000e+00
      endloop
   endfacet
   facet normal 0.000000e+00 0.000000e+00 -1.000000e+00
      outer loop
         vertex -3.930250e+01 -9.195277e+01 -2.000000e+00
         vertex -4.738687e+01 -8.805956e+01 -2.000000e+00
         vertex -5.508970e+01 -8.345733e+01 -2.000000e+00
      endloop
   endfacet
   facet normal 0.000000e+00 0.000000e+00 -1.000000e+00
      outer loop
         vertex -1.342333e+01 -9.909498e+01 -2.000000e+00
         vertex 4.486483e+00 -9.989931e+01 -2.000000e+00
         vertex -4.486483e+00 -9.989931e+01 -2.000000e+00
      endloop
   endfacet
   facet normal 0.000000e+00 0.000000e+00 -1.000000e+00
      outer loop
         vertex 8.090170e+01 -5.877853e+01 -2.000000e+00
         vertex 1.000000e+02 -2.449294e-14 -2.000000e+00
         vertex 9.959743e+01 -8.963931e+00 -2.000000e+00
      endloop
   endfacet
   facet normal 0.000000e+00 0.000000e+00 -1.000000e+00
      outer loop
         vertex 7.530714e+01 6.579387e+01 -2.000000e+00
         vertex 5.508970e+01 8.345733e+01 -2.000000e+00
         vertex 6.234898e+01 7.818315e+01 -2.000000e+00
      endloop
   endfacet
   facet normal 0.000000e+00 0.000000e+00 -1.000000e+00
      outer loop
         vertex 1.342333e+01 9.909498e+01 -2.000000e+00
         vertex -4.486483e+00 9.989931e+01 -2.000000e+00
         vertex 4.486483e+00 9.989931e+01 -2.000000e+00
      endloop
   endfacet
   facet normal 0.000000e+00 -0.000000e+00 -1.000000e+00
      outer loop
         vertex -9.959743e+01 8.963931e+00 -2.000000e+00
         vertex -9.639629e+01 2.660369e+01 -2.000000e+00
         vertex -9.362349e+01 3.513748e+01 -2.000000e+00
      endloop
   endfacet
   facet normal 0.000000e+00 0.000000e+00 -1.000000e+00
      outer loop
         vertex -9.959743e+01 8.963931e+00 -2.000000e+00
         vertex -9.639629e+01 -2.660369e+01 -2.000000e+00
         vertex -9.959743e+01 -8.963931e+00 -2.000000e+00
      endloop
   endfacet
   facet normal 0.000000e+00 0.000000e+00 -1.000000e+00
      outer loop
         vertex 6.910626e+01 -7.227949e+01 -2.000000e+00
         vertex -1.342333e+01 -9.909498e+01 -2.000000e+00
         vertex -3.930250e+01 -9.195277e+01 -2.000000e+00
      endloop
   endfacet
   facet normal 0.000000e+00 0.000000e+00 -1.000000e+00
      outer loop
         vertex 8.090170e+01 -5.877853e+01 -2.000000e+00
         vertex 9.959743e+01 -8.963931e+00 -2.000000e+00
         vertex 9.639629e+01 -2.660369e+01 -2.000000e+00
      endloop
   endfacet
   facet normal 0.000000e+00 -0.000000e+00 -1.000000e+00
      outer loop
         vertex 6.910626e+01 -7.227949e+01 -2.000000e+00
         vertex 7.530714e+01 6.579387e+01 -2.000000e+00
         vertex 9.009689e+01 4.338837e+01 -2.000000e+00
      endloop
   endfacet
   facet normal 0.000000e+00 0.000000e+00 -1.000000e+00
      outer loop
         vertex 1.342333e+01 9.909498e+01 -2.000000e+00
         vertex -3.930250e+01 9.195277e+01 -2.000000e+00
         vertex -2.225209e+01 9.749279e+01 -2.000000e+00
      endloop
   endfacet
   facet normal 0.000000e+00 0.000000e+00 -1.000000e+00
      outer loop
         vertex 4.738687e+01 -8.805956e+01 -2.000000e+00
         vertex 3.930250e+01 -9.195277e+01 -2.000000e+00
         vertex 5.508970e+01 -8.345733e+01 -2.000000e+00
      endloop
   endfacet
   facet normal 0.000000e+00 -0.000000e+00 -1.000000e+00
      outer loop
         vertex -9.959743e+01 8.963931e+00 -2.000000e+00
         vertex -8.584488e+01 5.128993e+01 -2.000000e+00
         vertex -5.508970e+01 8.345733e+01 -2.000000e+00
      endloop
   endfacet
   facet normal 0.000000e+00 -0.000000e+00 -1.000000e+00
      outer loop
         vertex -8.584488e+01 -5.128993e+01 -2.000000e+00
         vertex 1.342333e+01 9.909498e+01 -2.000000e+00
         vertex 7.530714e+01 6.579387e+01 -2.000000e+00
      endloop
   endfacet
   facet normal 0.000000e+00 0.000000e+00 -1.000000e+00
      outer loop
         vertex 6.910626e+01 -7.227949e+01 -2.000000e+00
         vertex 1.000000e+02 -2.449294e-14 -2.000000e+00
         vertex 8.090170e+01 -5.877853e+01 -2.000000e+00
      endloop
   endfacet
   facet normal 0.000000e+00 0.000000e+00 -1.000000e+00
      outer loop
         vertex 3.930250e+01 -9.195277e+01 -2.000000e+00
         vertex -1.342333e+01 -9.909498e+01 -2.000000e+00
         vertex 6.910626e+01 -7.227949e+01 -2.000000e+00
      endloop
   endfacet
   facet normal 0.000000e+00 -0.000000e+00 -1.000000e+00
      outer loop
         vertex -5.508970e+01 8.345733e+01 -2.000000e+00
         vertex -3.930250e+01 9.195277e+01 -2.000000e+00
         vertex 1.342333e+01 9.909498e+01 -2.000000e+00
      endloop
   endfacet
   facet normal 0.000000e+00 0.000000e+00 -1.000000e+00
      outer loop
         vertex -6.910626e+01 -7.227949e+01 -2.000000e+00
         vertex -8.584488e+01 -5.128993e+01 -2.000000e+00
         vertex 7.530714e+01 6.579387e+01 -2.000000e+00
      endloop
   endfacet
   facet normal 0.000000e+00 -0.000000e+00 -1.000000e+00
      outer loop
         vertex -8.584488e+01 -5.128993e+01 -2.000000e+00
         vertex -5.508970e+01 8.345733e+01 -2.000000e+00
         vertex 1.342333e+01 9.909498e+01 -2.000000e+00
      endloop
   endfacet
   facet normal 0.000000e+00 0.000000e+00 -1.000000e+00
      outer loop
         vertex -9.959743e+01 8.963931e+00 -2.000000e+00
         vertex -5.508970e+01 8.345733e+01 -2.000000e+00
         vertex -8.584488e+01 -5.128993e+01 -2.000000e+00
      endloop
   endfacet
   facet normal 0.000000e+00 -0.000000e+00 -1.000000e+00
      outer loop
         vertex 6.910626e+01 -7.227949e+01 -2.000000e+00
         vertex 9.959743e+01 8.963931e+00 -2.000000e+00
         vertex 1.000000e+02 -2.449294e-14 -2.000000e+00
      endloop
   endfacet
   facet normal 0.000000e+00 0.000000e+00 -1.000000e+00
      outer loop
         vertex -3.930250e+01 9.195277e+01 -2.000000e+00
         vertex -5.508970e+01 8.345733e+01 -2.000000e+00
         vertex -4.738687e+01 8.805956e+01 -2.000000e+00
      endloop
   endfacet
   facet normal 0.000000e+00 0.000000e+00 -1.000000e+00
      outer loop
         vertex 1.342333e+01 9.909498e+01 -2.000000e+00
         vertex -2.225209e+01 9.749279e+01 -2.000000e+00
         vertex -4.486483e+00 9.989931e+01 -2.000000e+00
      endloop
   endfacet
   facet normal 0.000000e+00 0.000000e+00 -1.000000e+00
      outer loop
         vertex -6.910626e+01 -7.227949e+01 -2.000000e+00
         vertex -3.930250e+01 -9.195277e+01 -2.000000e+00
         vertex -5.508970e+01 -8.345733e+01 -2.000000e+00
      endloop
   endfacet
   facet normal 0.000000e+00 0.000000e+00 -1.000000e+00
      outer loop
         vertex -6.910626e+01 -7.227949e+01 -2.000000e+00
         vertex 7.530714e+01 6.579387e+01 -2.000000e+00
         vertex 6.910626e+01 -7.227949e+01 -2.000000e+00
      endloop
   endfacet
   facet normal 0.000000e+00 0.000000e+00 -1.000000e+00
      outer loop
         vertex -3.930250e+01 -9.195277e+01 -2.000000e+00
         vertex -6.910626e+01 -7.227949e+01 -2.000000e+00
         vertex 6.910626e+01 -7.227949e+01 -2.000000e+00
      endloop
   endfacet
   facet normal 0.000000e+00 -0.000000e+00 -1.000000e+00
      outer loop
         vertex 6.910626e+01 -7.227949e+01 -2.000000e+00
         vertex 9.009689e+01 4.338837e+01 -2.000000e+00
         vertex 9.639629e+01 2.660369e+01 -2.000000e+00
      endloop
   endfacet
endsolid
