<?xml version="1.0" encoding="utf-8"?>
<!-- Generator: Adobe Illustrator 23.1.0, SVG Export Plug-In . SVG Version: 6.00 Build 0)  -->
<svg version="1.1" id="_x30_" xmlns="http://www.w3.org/2000/svg" xmlns:xlink="http://www.w3.org/1999/xlink" x="0px" y="0px"
	 viewBox="0 0 64 64" style="enable-background:new 0 0 64 64;" xml:space="preserve">
<style type="text/css">
	.st0{fill:none;stroke:#0080FF;stroke-width:0.15;stroke-miterlimit:10;}
</style>
<g id="LINE">
	<line class="st0" x1="41.55" y1="20.32" x2="41.29" y2="20.64"/>
</g>
<g id="LINE_1_">
	<line class="st0" x1="10.95" y1="54.08" x2="40.02" y2="57.71"/>
</g>
<g id="LINE_2_">
	<line class="st0" x1="40.02" y1="57.71" x2="38.91" y2="22.76"/>
</g>
<g id="LINE_3_">
	<line class="st0" x1="9.84" y1="19.13" x2="10.95" y2="54.08"/>
</g>
<g id="LINE_4_">
	<line class="st0" x1="38.91" y1="22.76" x2="9.84" y2="19.13"/>
</g>
<g id="LINE_5_">
	<line class="st0" x1="11.47" y1="53.45" x2="10.95" y2="54.08"/>
</g>
<g id="LINE_6_">
	<line class="st0" x1="8.11" y1="16.15" x2="7.86" y2="16.46"/>
</g>
<g id="LINE_7_">
	<line class="st0" x1="42.79" y1="59.43" x2="42.53" y2="59.75"/>
</g>
<g id="LINE_8_">
	<line class="st0" x1="42.53" y1="59.75" x2="41.29" y2="20.64"/>
</g>
<g id="LINE_9_">
	<line class="st0" x1="40.32" y1="21.56" x2="8.35" y2="17.57"/>
</g>
<g id="LINE_10_">
	<line class="st0" x1="41.52" y1="59.27" x2="40.32" y2="21.56"/>
</g>
<g id="LINE_11_">
	<line class="st0" x1="41.29" y1="20.64" x2="7.86" y2="16.46"/>
</g>
<g id="LINE_12_">
	<line class="st0" x1="41.29" y1="20.64" x2="40.32" y2="21.56"/>
</g>
<g id="LINE_13_">
	<line class="st0" x1="7.86" y1="16.46" x2="8.35" y2="17.57"/>
</g>
<g id="LINE_14_">
	<line class="st0" x1="9.54" y1="55.28" x2="41.52" y2="59.27"/>
</g>
<g id="LINE_15_">
	<line class="st0" x1="9.1" y1="55.57" x2="42.53" y2="59.75"/>
</g>
<g id="LINE_16_">
	<line class="st0" x1="41.52" y1="59.27" x2="42.53" y2="59.75"/>
</g>
<g id="LINE_17_">
	<line class="st0" x1="7.86" y1="16.46" x2="9.1" y2="55.57"/>
</g>
<g id="LINE_18_">
	<line class="st0" x1="9.1" y1="55.57" x2="9.54" y2="55.28"/>
</g>
<g id="LINE_19_">
	<line class="st0" x1="8.35" y1="17.57" x2="9.54" y2="55.28"/>
</g>
<g id="LINE_20_">
	<line class="st0" x1="8.11" y1="16.15" x2="41.55" y2="20.32"/>
</g>
<g id="LINE_21_">
	<line class="st0" x1="42.94" y1="64.35" x2="41.55" y2="20.32"/>
</g>
<g id="LINE_22_">
	<line class="st0" x1="11.79" y1="53.06" x2="11.47" y2="53.45"/>
</g>
<g id="LINE_23_">
	<line class="st0" x1="10.38" y1="19.2" x2="11.47" y2="53.45"/>
</g>
<g id="LINE_24_">
	<line class="st0" x1="11.47" y1="53.45" x2="40" y2="57.01"/>
</g>
<g id="LINE_25_">
	<line class="st0" x1="11.47" y1="53.45" x2="40" y2="57.01"/>
</g>
<g id="LINE_26_">
	<line class="st0" x1="10.38" y1="19.2" x2="11.47" y2="53.45"/>
</g>
<g id="LINE_27_">
	<line class="st0" x1="10.72" y1="19.24" x2="11.79" y2="53.06"/>
</g>
<g id="LINE_28_">
	<line class="st0" x1="11.79" y1="53.06" x2="39.99" y2="56.57"/>
</g>
<g id="LINE_29_">
	<line class="st0" x1="41.55" y1="20.32" x2="8.11" y2="16.15"/>
</g>
<g id="LINE_30_">
	<line class="st0" x1="42.79" y1="59.43" x2="41.55" y2="20.32"/>
</g>
<g id="LINE_31_">
	<line class="st0" x1="44.92" y1="63.91" x2="56.82" y2="49.43"/>
</g>
<g id="LINE_32_">
	<line class="st0" x1="9.51" y1="60.18" x2="42.94" y2="64.35"/>
</g>
<g id="LINE_33_">
	<line class="st0" x1="11.54" y1="13.45" x2="40.62" y2="17.08"/>
</g>
<g id="LINE_34_">
	<line class="st0" x1="50.97" y1="4.49" x2="21.9" y2="0.86"/>
</g>
<g id="LINE_35_">
	<line class="st0" x1="40.62" y1="17.08" x2="50.97" y2="4.49"/>
</g>
<g id="LINE_36_">
	<line class="st0" x1="21.9" y1="0.86" x2="11.54" y2="13.45"/>
</g>
<g id="LINE_37_">
	<line class="st0" x1="21.95" y1="2.61" x2="21.9" y2="0.86"/>
</g>
<g id="LINE_38_">
	<line class="st0" x1="8.11" y1="16.15" x2="8.59" y2="14.12"/>
</g>
<g id="LINE_39_">
	<line class="st0" x1="7.18" y1="15.34" x2="8.59" y2="14.12"/>
</g>
<g id="LINE_40_">
	<line class="st0" x1="53.93" y1="3.82" x2="55.42" y2="5.4"/>
</g>
<g id="LINE_41_">
	<line class="st0" x1="20.49" y1="-0.35" x2="8.59" y2="14.12"/>
</g>
<g id="LINE_42_">
	<line class="st0" x1="53.93" y1="3.82" x2="20.49" y2="-0.35"/>
</g>
<g id="LINE_43_">
	<line class="st0" x1="20.49" y1="-0.35" x2="19.08" y2="0.86"/>
</g>
<g id="LINE_44_">
	<line class="st0" x1="42.02" y1="18.29" x2="43.52" y2="19.87"/>
</g>
<g id="LINE_45_">
	<line class="st0" x1="41.55" y1="20.32" x2="42.02" y2="18.29"/>
</g>
<g id="LINE_46_">
	<line class="st0" x1="44.92" y1="63.91" x2="43.52" y2="19.87"/>
</g>
<g id="LINE_47_">
	<line class="st0" x1="8.11" y1="16.15" x2="7.18" y2="15.34"/>
</g>
<g id="LINE_48_">
	<line class="st0" x1="8.58" y1="59.37" x2="7.18" y2="15.34"/>
</g>
<g id="LINE_49_">
	<line class="st0" x1="41.55" y1="20.32" x2="43.52" y2="19.87"/>
</g>
<g id="LINE_50_">
	<line class="st0" x1="44.92" y1="63.91" x2="42.94" y2="64.35"/>
</g>
<g id="LINE_51_">
	<line class="st0" x1="9.51" y1="60.18" x2="8.58" y2="59.37"/>
</g>
<g id="LINE_52_">
	<line class="st0" x1="43.52" y1="19.87" x2="55.42" y2="5.4"/>
</g>
<g id="LINE_53_">
	<line class="st0" x1="42.02" y1="18.29" x2="53.93" y2="3.82"/>
</g>
<g id="LINE_54_">
	<line class="st0" x1="19.08" y1="0.86" x2="7.18" y2="15.34"/>
</g>
<g id="LINE_55_">
	<line class="st0" x1="8.59" y1="14.12" x2="42.02" y2="18.29"/>
</g>
<g id="LINE_56_">
	<line class="st0" x1="56.82" y1="49.43" x2="55.42" y2="5.4"/>
</g>
<g id="LINE_57_">
	<line class="st0" x1="18.7" y1="46.54" x2="36.87" y2="48.81"/>
</g>
<g id="LINE_58_">
	<line class="st0" x1="22.77" y1="34.9" x2="16.3" y2="42.77"/>
</g>
<g id="LINE_59_">
	<line class="st0" x1="18.64" y1="44.79" x2="36.81" y2="47.06"/>
</g>
<g id="LINE_60_">
	<line class="st0" x1="16.13" y1="45.09" x2="16.08" y2="43.34"/>
</g>
<g id="ELLIPSE">
	<path class="st0" d="M27.7,33.78c-2.01-0.25-4.21,0.25-4.93,1.12"/>
</g>
<g id="ELLIPSE_1_">
	<path class="st0" d="M22.13,2.66c0.01-0.01,0.02-0.02,0.02-0.03"/>
</g>
<g id="LINE_61_">
	<line class="st0" x1="21.33" y1="36.66" x2="20.81" y2="20.5"/>
</g>
<g id="LINE_62_">
	<line class="st0" x1="20.63" y1="14.58" x2="20.46" y2="9.32"/>
</g>
<g id="LINE_63_">
	<line class="st0" x1="20.42" y1="8.15" x2="20.32" y2="4.87"/>
</g>
<g id="LINE_64_">
	<line class="st0" x1="18.64" y1="46.53" x2="13.14" y2="53.22"/>
</g>
<g id="LINE_65_">
	<line class="st0" x1="21.95" y1="2.61" x2="12.9" y2="13.62"/>
</g>
<g id="LINE_66_">
	<line class="st0" x1="49.67" y1="6.07" x2="21.95" y2="2.61"/>
</g>
<g id="LINE_67_">
	<line class="st0" x1="9.51" y1="60.18" x2="9.37" y2="55.61"/>
</g>
<g id="LINE_68_">
	<line class="st0" x1="36.5" y1="52.53" x2="36.38" y2="48.75"/>
</g>
<g id="LINE_69_">
	<line class="st0" x1="28.79" y1="52.78" x2="28.63" y2="47.78"/>
</g>
<g id="ELLIPSE_2_">
	<path class="st0" d="M36.28,53.11c0.15-0.19,0.23-0.38,0.22-0.58"/>
</g>
<g id="ELLIPSE_3_">
	<path class="st0" d="M28.79,52.78c0.03,0.9,1.78,1.58,3.91,1.51c1.61-0.05,3.04-0.52,3.58-1.18"/>
</g>
<g id="ELLIPSE_4_">
	<path class="st0" d="M16.3,42.77c-0.15,0.19-0.23,0.38-0.22,0.58"/>
</g>
<g id="ELLIPSE_5_">
	<path class="st0" d="M16.08,43.34c0.02,0.68,1.04,1.26,2.56,1.45"/>
</g>
<g id="LINE_70_">
	<line class="st0" x1="39.31" y1="35.23" x2="27.7" y2="33.78"/>
</g>
<g id="ELLIPSE_6_">
	<path class="st0" d="M16.13,45.09c0.02,0.68,1.04,1.26,2.56,1.45"/>
</g>
<g id="ELLIPSE_7_">
	<path class="st0" d="M36.81,47.06c0.94,0.12,1.96,0.07,2.87-0.12"/>
</g>
<g id="ELLIPSE_8_">
	<path class="st0" d="M36.87,48.81c0.94,0.12,1.96,0.07,2.87-0.12"/>
</g>
<g id="LINE_71_">
	<line class="st0" x1="22.13" y1="2.66" x2="13.1" y2="13.64"/>
</g>
</svg>
